<?xml version="1.0" encoding="UTF-8" standalone="no"?>
<!DOCTYPE svg PUBLIC "-//W3C//DTD SVG 1.1//EN" "http://www.w3.org/Graphics/SVG/1.1/DTD/svg11.dtd">
<svg width="100%" height="100%" viewBox="0 0 800 800" version="1.1" xmlns="http://www.w3.org/2000/svg" xmlns:xlink="http://www.w3.org/1999/xlink" xml:space="preserve" style="fill-rule:evenodd;clip-rule:evenodd;stroke-linecap:round;stroke-linejoin:round;stroke-miterlimit:1.5;">
    <g transform="matrix(1,0,0,1,-12.2435,-43.4087)">
        <path d="M125.824,754.996L125.961,755.011L126.105,755.032L126.256,755.061L126.272,755.065L126.292,755.031L126.379,754.886L126.47,754.738L126.563,754.589L126.659,754.438L126.752,754.295L126.791,754.092L126.847,753.88L126.914,753.682L126.987,753.502L127.062,753.341L127.143,753.191L127.225,753.053L127.307,752.931L127.387,752.819L127.481,752.699L127.616,752.542L127.761,752.391L127.9,752.261L128.03,752.15L128.153,752.051L128.27,751.964L128.381,751.886L128.487,751.815L128.588,751.75L128.685,751.691L128.777,751.637L128.875,751.581L129.032,751.496L129.079,751.472L129.141,751.421L129.233,751.347L129.329,751.273L129.432,751.198L129.59,751.089L129.696,751.027L129.935,750.9L130.185,750.795L130.19,750.793L130.528,750.691L130.875,750.629L131.227,750.608L131.231,750.608L131.637,750.636L132.035,750.718L132.166,750.48L132.171,750.472L132.386,750.173L132.4,750.155L132.606,749.927L132.697,749.836L132.85,749.702L132.971,749.606L133.073,749.531L133.16,749.47L133.242,749.414L133.369,749.331L133.487,749.257L133.587,749.194L133.671,749.141L133.722,749.108L133.744,749.089L133.834,749.011L133.923,748.937L134.014,748.866L134.104,748.799L134.194,748.735L134.283,748.676L134.37,748.619L134.456,748.567L134.542,748.517L134.639,748.462L134.79,748.383L134.95,748.306L135.103,748.238L135.25,748.177L135.391,748.122L135.526,748.073L135.656,748.029L135.779,747.988L135.895,747.952L136.01,747.917L136.206,747.86L136.385,747.809L136.545,747.763L136.609,747.744L136.67,747.725L136.723,747.708L136.769,747.693L136.809,747.679L136.839,747.668L136.863,747.659L136.878,747.653L136.884,747.65L136.9,747.642L137.041,747.571L137.202,747.488L137.366,747.403L137.533,747.314L137.704,747.222L137.878,747.128L138.055,747.031L138.233,746.932L138.603,746.725L138.981,746.512L139.368,746.292L139.763,746.066L140.166,745.837L140.576,745.604L140.993,745.37L141.413,745.137L141.629,745.018L141.843,744.901L142.059,744.785L142.277,744.669L142.496,744.554L142.715,744.44L142.937,744.326L143.187,744.2L143.29,744.152L143.392,744.108L143.529,744.052L143.679,743.992L143.841,743.931L144.016,743.865L144.204,743.795L144.588,743.655L144.786,743.584L144.976,743.517L145.158,743.454L145.329,743.396L145.493,743.342L145.651,743.293L145.768,743.26L145.949,743.215L146.077,743.193L146.512,743.151L146.518,743.151L146.62,743.154L146.624,743.147L146.703,743.021L146.783,742.895L146.865,742.769L146.949,742.642L147.034,742.516L147.121,742.389L147.211,742.262L147.302,742.136L147.396,742.009L147.491,741.883L147.59,741.757L147.69,741.632L147.793,741.507L147.899,741.382L148.008,741.259L148.12,741.136L148.236,741.013L148.3,740.947L148.303,740.944L148.421,740.81L148.515,740.705L148.625,740.586L148.746,740.461L148.826,740.382L148.904,740.307L148.99,740.228L149.083,740.146L149.186,740.059L149.303,739.967L149.437,739.869L149.589,739.767L149.767,739.66L149.957,739.561L150.103,739.495L150.24,739.438L150.391,739.385L150.557,739.335L150.745,739.289L150.952,739.252L151.178,739.228L151.431,739.219L151.701,739.232L151.843,739.251L152.129,739.304L152.143,739.307L152.428,739.389L152.442,739.394L152.719,739.505L152.733,739.511L153.025,739.664L153.038,739.672L153.063,739.689L153.137,739.629L153.275,739.524L153.421,739.422L153.578,739.322L153.742,739.225L153.855,739.166L154.133,739.036L154.139,739.034L154.523,738.909L154.528,738.907L154.794,738.852L155.064,738.822L155.077,738.821L155.341,738.814L155.604,738.831L155.619,738.833L155.928,738.888L156.009,738.768L156.109,738.627L156.215,738.485L156.327,738.342L156.44,738.207L156.511,738.126L156.577,738.053L156.647,737.978L156.748,737.876L156.894,737.74L157.066,737.603L157.225,737.49L157.379,737.393L157.521,737.314L157.651,737.248L157.774,737.192L157.89,737.144L158,737.103L158.12,737.061L158.289,737.009L158.461,736.965L158.619,736.929L158.767,736.901L158.905,736.877L159.037,736.858L159.164,736.842L159.285,736.828L159.401,736.817L159.515,736.807L159.629,736.798L159.828,736.785L160.021,736.775L160.339,736.761L160.462,736.755L160.553,736.75L160.553,736.75L160.637,736.738L160.767,736.717L160.899,736.695L161.033,736.671L161.168,736.646L161.306,736.619L161.446,736.591L161.587,736.562L161.73,736.532L161.872,736.5L162.172,736.433L162.475,736.363L162.786,736.29L163.104,736.216L163.431,736.14L163.765,736.064L164.102,735.989L164.28,735.951L164.456,735.915L164.634,735.879L164.814,735.844L164.996,735.81L165.181,735.777L165.368,735.746L165.547,735.717L166.274,735.605L167.002,735.491L167.373,735.434L167.747,735.378L168.125,735.322L168.505,735.268L168.889,735.216L169.273,735.166L169.47,735.142L169.666,735.119L169.862,735.096L170.059,735.075L170.202,735.06L170.202,735.059L170.282,734.632L170.422,734.221L170.621,733.834L170.873,733.48L171.174,733.167L171.517,732.9L171.895,732.685L172.3,732.527L172.372,732.505L172.565,732.447L172.846,732.364L173.017,732.314L173.199,732.262L173.393,732.207L173.594,732.152L173.803,732.096L174.015,732.041L174.229,731.988L174.438,731.938L174.552,731.913L174.662,731.889L174.774,731.867L174.889,731.845L175.082,731.812L175.273,731.781L175.462,731.754L175.647,731.73L175.83,731.708L176.009,731.689L176.184,731.671L176.357,731.656L176.526,731.641L176.695,731.628L177.012,731.605L177.319,731.583L177.612,731.562L177.894,731.54L178.024,731.529L178.154,731.518L178.28,731.505L178.401,731.492L178.518,731.478L178.631,731.464L178.739,731.448L178.844,731.432L178.944,731.414L179.04,731.396L179.131,731.377L179.227,731.355L179.261,731.347L179.301,731.336L179.342,731.326L179.402,731.309L179.564,731.264L179.747,731.217L179.925,731.174L180.101,731.135L180.274,731.099L180.444,731.065L180.609,731.034L180.772,731.006L180.931,730.979L181.089,730.953L181.385,730.908L181.941,730.825L182.2,730.786L182.318,730.767L182.436,730.747L182.548,730.728L182.657,730.708L182.761,730.688L182.859,730.667L182.954,730.647L183.044,730.625L183.129,730.604L183.209,730.582L183.285,730.56L183.364,730.536L183.389,730.528L183.422,730.516L183.454,730.505L183.484,730.494L183.582,730.457L183.682,730.417L183.784,730.376L183.888,730.332L183.995,730.287L184.104,730.239L184.214,730.19L184.326,730.139L184.439,730.086L184.555,730.032L184.672,729.976L184.789,729.919L185.034,729.799L185.283,729.674L185.539,729.545L185.8,729.411L186.338,729.136L186.617,728.994L186.901,728.852L187.191,728.709L187.482,728.567L187.635,728.494L187.787,728.424L187.94,728.353L188.095,728.283L188.252,728.213L188.41,728.144L188.569,728.076L188.731,728.009L188.893,727.943L189.059,727.878L189.225,727.814L189.394,727.751L189.565,727.69L189.737,727.631L189.912,727.573L190.088,727.518L190.266,727.464L190.447,727.412L190.63,727.363L190.815,727.316L191.002,727.272L191.191,727.231L191.383,727.193L191.576,727.158L191.773,727.126L191.97,727.099L192.17,727.074L192.365,727.055L192.474,727.045L192.577,727.038L192.679,727.031L192.783,727.026L192.888,727.022L192.992,727.019L193.096,727.017L193.197,727.016L193.375,727.017L193.549,727.019L193.723,727.021L193.896,727.024L194.068,727.029L194.244,727.034L194.585,727.046L194.927,727.061L195.268,727.079L195.607,727.099L195.943,727.121L196.277,727.144L196.609,727.168L196.937,727.194L197.264,727.22L197.903,727.273L198.586,727.33L198.759,727.351L198.902,727.369L199.007,727.384L199.021,727.354L199.085,727.23L199.139,727.13L199.195,727.032L199.254,726.934L199.315,726.837L199.377,726.743L199.442,726.65L199.509,726.558L199.578,726.468L199.649,726.38L199.722,726.294L199.797,726.209L199.873,726.127L199.951,726.046L200.031,725.967L200.112,725.891L200.194,725.818L200.278,725.745L200.362,725.677L200.447,725.609L200.535,725.544L200.621,725.482L200.708,725.422L200.798,725.363L200.885,725.309L200.973,725.256L201.064,725.205L201.153,725.156L201.243,725.109L201.332,725.065L201.421,725.023L201.51,724.983L201.599,724.945L201.7,724.904L201.865,724.842L202.039,724.782L202.212,724.73L202.382,724.683L202.552,724.642L202.719,724.606L202.883,724.575L203.044,724.549L203.203,724.527L203.36,724.508L203.515,724.493L203.668,724.482L203.817,724.473L203.965,724.467L204.111,724.463L204.255,724.461L204.396,724.462L204.536,724.464L204.674,724.468L204.81,724.474L204.944,724.481L205.075,724.489L205.205,724.498L205.334,724.508L205.465,724.52L205.706,724.543L205.946,724.57L206.178,724.598L206.403,724.626L206.618,724.655L207.021,724.709L207.207,724.733L207.382,724.756L207.543,724.775L207.692,724.791L207.758,724.797L207.827,724.802L207.897,724.807L207.967,724.811L208.039,724.814L208.113,724.817L208.187,724.819L208.262,724.82L208.341,724.82L208.419,724.82L208.498,724.819L208.579,724.817L208.661,724.814L208.745,724.811L208.829,724.807L208.915,724.802L209.002,724.797L209.084,724.791L209.269,724.776L209.452,724.759L209.639,724.74L209.831,724.719L210.025,724.695L210.223,724.67L210.426,724.643L210.631,724.615L210.838,724.585L211.267,724.522L211.706,724.458L212.151,724.394L212.383,724.362L212.615,724.332L212.85,724.302L213.087,724.274L213.328,724.248L213.571,724.224L213.817,724.203L214.066,724.185L214.179,724.178L214.291,724.173L214.402,724.169L214.51,724.166L214.618,724.164L214.729,724.164L214.929,724.165L215.131,724.17L215.328,724.177L215.519,724.185L215.708,724.195L216.063,724.215L216.406,724.236L216.568,724.245L216.644,724.25L216.722,724.23L216.82,724.204L216.89,724.185L216.922,724.176L216.982,724.157L217.136,724.112L217.358,724.063L217.564,724.03L217.751,724.011L217.921,724.002L218.078,724L218.216,724.003L218.341,724.01L218.452,724.019L218.518,724.026L218.583,724.005L218.708,723.969L218.91,723.919L219.053,723.897L219.458,723.861L219.864,723.881L219.867,723.881L220.285,723.96L220.686,724.097L220.877,724.194L221.03,724.116L221.161,724.052L221.304,723.984L221.462,723.912L221.622,723.845L221.723,723.804L221.822,723.766L221.924,723.729L222.031,723.693L222.141,723.659L222.258,723.625L222.383,723.592L222.511,723.561L222.647,723.534L222.789,723.509L222.936,723.488L223.091,723.472L223.253,723.461L223.42,723.456L223.592,723.458L223.771,723.468L223.956,723.486L224.142,723.514L224.331,723.551L224.522,723.598L224.713,723.656L224.905,723.725L225.091,723.802L225.274,723.89L225.452,723.987L225.624,724.092L225.754,724.181L225.796,724.146L225.915,724.05L226.037,723.956L226.161,723.864L226.286,723.776L226.414,723.689L226.544,723.606L226.676,723.524L226.81,723.444L226.946,723.368L227.082,723.294L227.221,723.223L227.362,723.153L227.503,723.087L227.648,723.021L227.794,722.959L227.936,722.901L228.102,722.835L228.265,722.773L228.427,722.713L228.591,722.655L228.756,722.599L228.922,722.544L229.09,722.492L229.258,722.442L229.428,722.395L229.599,722.349L229.772,722.306L229.946,722.266L230.121,722.228L230.297,722.192L230.474,722.159L230.634,722.131L230.727,722.115L230.8,722.101L230.877,722.086L230.956,722.07L231.037,722.052L231.116,722.034L231.297,721.991L231.482,721.946L231.676,721.896L232.099,721.786L232.327,721.728L232.566,721.668L232.811,721.61L232.945,721.58L233.078,721.551L233.215,721.523L233.354,721.495L233.496,721.469L233.64,721.444L233.789,721.42L233.94,721.397L234.094,721.377L234.247,721.358L234.378,721.345L234.503,721.332L234.63,721.322L234.755,721.312L234.88,721.304L235.005,721.296L235.129,721.29L235.251,721.286L235.375,721.282L235.499,721.279L235.619,721.278L235.741,721.277L235.863,721.277L235.982,721.279L236.103,721.281L236.229,721.285L236.459,721.294L236.695,721.306L236.928,721.322L237.159,721.341L237.388,721.362L237.615,721.386L237.839,721.412L238.062,721.441L238.283,721.471L238.501,721.503L238.716,721.537L238.931,721.572L239.143,721.609L239.353,721.646L239.561,721.685L239.767,721.724L239.971,721.764L239.984,721.767L240.249,721.726L240.639,721.668L241.029,721.612L241.418,721.557L241.806,721.504L242.193,721.452L242.58,721.401L242.967,721.352L243.735,721.255L245.253,721.066L245.321,721.057L245.399,721.045L245.625,721.01L245.905,720.965L246.228,720.914L246.407,720.887L246.594,720.859L246.787,720.832L246.988,720.805L247.195,720.779L247.408,720.754L247.626,720.731L247.848,720.711L248.07,720.693L248.191,720.685L248.307,720.679L248.424,720.673L248.544,720.669L248.665,720.665L248.785,720.663L248.908,720.662L249.033,720.663L249.159,720.666L249.287,720.67L249.416,720.677L249.547,720.686L249.681,720.697L249.818,720.711L249.956,720.728L250.098,720.749L250.244,720.774L250.394,720.804L250.547,720.839L250.616,720.857L250.657,720.824L251.025,720.607L251.421,720.444L251.837,720.34L252.262,720.296L252.69,720.312L253.111,720.389L253.517,720.526L253.899,720.719L254.25,720.964L254.562,721.257L254.83,721.591L255.047,721.96L255.209,722.356L255.246,722.468L255.286,722.591L255.324,722.714L255.362,722.836L255.398,722.959L255.434,723.081L255.469,723.203L255.502,723.326L255.535,723.447L255.566,723.57L255.597,723.691L255.627,723.813L255.655,723.935L255.683,724.057L255.71,724.178L255.735,724.299L255.76,724.421L255.784,724.542L255.807,724.663L255.829,724.784L255.85,724.905L255.869,725.026L255.888,725.147L255.906,725.267L255.923,725.387L255.94,725.508L255.955,725.628L255.969,725.748L255.982,725.868L255.995,725.993L256.016,726.226L256.034,726.464L256.048,726.702L256.059,726.939L256.066,727.176L256.069,727.411L256.068,727.646L256.065,727.88L256.057,728.113L256.046,728.346L256.032,728.577L256.015,728.808L255.994,729.038L255.97,729.266L255.942,729.494L255.912,729.721L255.879,729.947L255.842,730.172L255.803,730.397L255.761,730.62L255.716,730.842L255.668,731.063L255.617,731.283L255.564,731.503L255.508,731.721L255.45,731.938L255.39,732.155L255.326,732.371L255.261,732.585L255.194,732.799L255.124,733.012L255.052,733.225L254.978,733.436L254.901,733.646L254.823,733.856L254.743,734.066L254.661,734.274L254.578,734.482L254.492,734.689L254.459,734.768L254.589,734.86L254.873,735.122L255.121,735.419L255.329,735.745L255.493,736.095L255.611,736.463L255.681,736.843L255.701,737.229L255.701,737.231L255.67,737.626L255.587,738.013L255.454,738.386L255.272,738.738L255.046,739.064L255.045,739.065L254.82,739.317L254.567,739.542L254.291,739.738L254.286,739.741L254.028,739.885L253.758,740.003L253.746,740.008L253.711,740.034L253.624,740.098L253.536,740.16L253.447,740.22L253.359,740.275L253.271,740.329L253.177,740.384L253.081,740.437L252.984,740.488L252.881,740.539L252.771,740.591L252.657,740.641L252.538,740.689L252.407,740.738L252.266,740.785L252.116,740.829L251.95,740.871L251.764,740.908L251.556,740.939L251.325,740.959L251.063,740.963L250.799,740.945L250.607,740.919L250.435,740.887L250.252,740.841L250.07,740.785L249.874,740.711L249.765,740.661L249.512,740.531L249.494,740.52L249.218,740.339L249.125,740.349L248.933,740.371L248.745,740.394L248.56,740.419L248.379,740.445L248.202,740.473L248.025,740.504L247.946,740.518L247.863,740.534L247.782,740.55L247.702,740.566L247.624,740.583L247.547,740.6L247.472,740.617L247.399,740.634L247.327,740.652L247.258,740.67L247.191,740.688L247.125,740.706L247.061,740.725L247,740.743L246.942,740.762L246.858,740.789L246.774,740.816L246.667,740.847L246.558,740.877L246.451,740.903L246.35,740.925L246.25,740.946L246.149,740.964L246.051,740.98L245.955,740.994L245.852,741.008L245.685,741.025L245.513,741.039L245.348,741.048L245.192,741.052L245.043,741.054L244.901,741.054L244.765,741.051L244.637,741.047L244.512,741.042L244.296,741.032L244.099,741.022L243.924,741.014L243.854,741.011L243.789,741.009L243.731,741.008L243.683,741.008L243.645,741.009L243.617,741.01L243.614,741.01L243.606,741.012L243.534,741.031L243.458,741.052L243.381,741.075L243.301,741.099L243.224,741.122L243.047,741.179L242.867,741.238L242.679,741.303L242.484,741.37L242.281,741.441L242.071,741.515L241.853,741.591L241.629,741.668L241.397,741.745L241.163,741.82L241.035,741.86L240.91,741.897L240.784,741.934L240.655,741.97L240.523,742.006L240.378,742.043L240.253,742.072L240.12,742.1L239.99,742.123L239.862,742.143L239.736,742.16L239.613,742.174L239.496,742.185L239.38,742.193L239.264,742.199L239.154,742.203L239.048,742.206L238.941,742.207L238.838,742.206L238.731,742.204L238.547,742.197L238.364,742.187L238.188,742.175L238.023,742.161L237.864,742.146L237.582,742.118L237.321,742.091L237.21,742.081L237.106,742.072L237.012,742.064L236.93,742.06L236.849,742.056L236.824,742.055L236.795,742.055L236.779,742.055L236.769,742.06L236.668,742.107L236.567,742.153L236.465,742.198L236.364,742.242L236.262,742.284L236.16,742.326L236.058,742.367L235.955,742.407L235.852,742.445L235.744,742.485L235.545,742.554L235.339,742.622L235.133,742.686L234.925,742.747L234.718,742.804L234.511,742.857L234.303,742.907L234.096,742.954L233.888,742.997L233.681,743.037L233.474,743.075L233.266,743.109L233.059,743.141L232.852,743.169L232.645,743.195L232.439,743.219L232.232,743.24L232.027,743.258L231.822,743.274L231.617,743.288L231.412,743.299L231.209,743.308L231.006,743.316L230.802,743.321L230.601,743.323L230.42,743.324L230.36,743.325L230.298,743.326L230.097,743.332L229.84,743.34L229.541,743.349L229.372,743.352L229.198,743.355L229.015,743.357L228.826,743.357L228.631,743.356L228.431,743.353L228.225,743.347L228.014,743.338L227.808,743.326L227.693,743.318L227.581,743.309L227.471,743.299L227.359,743.288L227.243,743.276L227.129,743.261L227.013,743.246L226.894,743.228L226.775,743.208L226.652,743.186L226.528,743.162L226.402,743.134L226.275,743.104L226.142,743.069L226.006,743.03L225.868,742.987L225.725,742.937L225.578,742.881L225.424,742.817L225.266,742.744L225.211,742.716L225.209,742.717L225.119,742.775L225.048,742.844L224.948,742.939L224.877,743.004L224.8,743.073L224.71,743.149L224.609,743.23L224.489,743.321L224.347,743.419L224.183,743.521L223.983,743.631L223.776,743.726L223.616,743.789L223.464,743.841L223.303,743.887L223.13,743.927L222.942,743.96L222.74,743.982L222.52,743.992L222.389,743.989L222.151,744.213L222.143,744.22L221.867,744.421L221.753,744.494L221.533,744.612L221.344,744.695L221.16,744.764L220.938,744.831L220.734,744.878L220.565,744.909L220.423,744.929L220.297,744.944L220.182,744.954L220.077,744.961L219.978,744.967L219.876,744.971L219.709,744.975L219.547,744.976L219.399,744.976L219.265,744.974L219.078,744.969L219.013,744.968L217.096,744.968L216.919,744.967L216.735,744.964L216.552,744.96L216.37,744.954L216.188,744.947L216.008,744.938L215.828,744.928L215.649,744.917L215.47,744.905L215.294,744.892L215.117,744.878L214.938,744.862L214.595,744.831L214.251,744.796L213.912,744.76L213.578,744.722L213.248,744.684L212.925,744.646L212.295,744.571L211.991,744.535L211.65,744.496L211.494,744.475L211.315,744.441L211.156,744.404L211.014,744.365L210.89,744.327L210.837,744.31L210.811,744.321L210.698,744.368L210.585,744.413L210.471,744.458L210.352,744.504L210.131,744.586L209.906,744.666L209.68,744.742L209.456,744.815L209.233,744.883L209.01,744.949L208.788,745.011L208.567,745.071L208.347,745.127L208.129,745.181L207.91,745.233L207.693,745.282L207.477,745.329L207.262,745.374L207.049,745.417L206.835,745.459L206.623,745.499L206.412,745.539L206.201,745.577L205.99,745.614L205.576,745.685L205.162,745.755L204.822,745.811L204.79,745.828L204.756,745.847L204.714,745.871L204.666,745.901L204.609,745.937L204.55,745.975L204.395,746.078L204.219,746.196L204.022,746.327L203.904,746.404L203.781,746.481L203.65,746.561L203.509,746.644L203.359,746.728L203.209,746.807L203.115,746.854L203.028,746.896L202.939,746.937L202.844,746.979L202.748,747.02L202.651,747.059L202.548,747.098L202.444,747.135L202.338,747.171L202.225,747.206L202.111,747.238L202.001,747.267L201.83,747.308L201.665,747.346L201.499,747.38L201.334,747.411L201.171,747.439L201.008,747.466L200.845,747.489L200.684,747.51L200.522,747.528L200.362,747.544L200.204,747.558L200.045,747.57L199.888,747.58L199.731,747.588L199.576,747.594L199.421,747.599L199.268,747.601L199.115,747.602L198.963,747.602L198.814,747.6L198.664,747.597L198.516,747.592L198.368,747.587L198.221,747.58L198.076,747.572L197.932,747.563L197.788,747.553L197.641,747.542L197.364,747.519L197.104,747.494L197.062,747.49L197.036,747.488L197.005,747.486L196.978,747.485L196.893,747.481L196.803,747.48L196.703,747.479L196.593,747.48L196.474,747.483L196.346,747.487L196.21,747.491L196.067,747.497L195.758,747.51L195.432,747.524L195.255,747.53L195.075,747.534L194.89,747.538L194.7,747.539L194.504,747.538L194.303,747.534L194.104,747.526L193.992,747.521L193.883,747.514L193.776,747.506L193.666,747.496L193.554,747.485L193.442,747.472L193.326,747.458L193.209,747.441L193.091,747.422L192.973,747.402L192.852,747.378L192.728,747.352L192.603,747.323L192.477,747.291L192.349,747.256L192.218,747.216L192.087,747.173L192.075,747.169L192.032,747.198L191.977,747.236L191.919,747.277L191.859,747.321L191.795,747.369L191.73,747.419L191.662,747.471L191.594,747.526L191.523,747.583L191.453,747.64L191.299,747.768L191.145,747.9L190.985,748.037L190.821,748.179L190.653,748.325L190.48,748.475L190.302,748.626L190.122,748.776L190.024,748.856L189.927,748.934L189.826,749.013L189.724,749.091L189.618,749.17L189.507,749.25L189.394,749.329L189.273,749.409L189.146,749.49L189.013,749.57L188.869,749.651L188.698,749.74L188.514,749.826L188.309,749.906L188.107,749.971L187.915,750.023L187.727,750.063L187.546,750.092L187.376,750.112L187.212,750.125L187.056,750.131L186.91,750.132L186.77,750.128L186.635,750.121L186.508,750.11L186.387,750.097L186.273,750.083L186.161,750.066L186.056,750.048L185.956,750.03L185.858,750.01L185.757,749.988L185.591,749.95L185.429,749.909L185.277,749.868L185.136,749.829L184.89,749.759L184.781,749.728L184.691,749.703L184.592,749.745L184.42,749.814L184.249,749.879L184.079,749.941L183.91,750L183.74,750.055L183.572,750.108L183.405,750.157L183.239,750.203L183.074,750.247L182.91,750.288L182.747,750.327L182.586,750.363L182.426,750.397L182.267,750.429L182.111,750.458L181.955,750.487L181.8,750.513L181.648,750.538L181.496,750.561L181.346,750.582L181.198,750.603L181.048,750.623L180.765,750.657L180.483,750.689L180.208,750.718L179.94,750.745L179.681,750.771L179.178,750.82L178.94,750.845L178.708,750.871L178.48,750.898L178.374,750.912L178.267,750.926L178.162,750.941L178.059,750.956L177.958,750.972L177.858,750.989L177.761,751.006L177.666,751.023L177.573,751.042L177.481,751.061L177.393,751.08L177.305,751.1L177.22,751.121L177.136,751.143L177.055,751.166L176.975,751.189L176.897,751.213L176.816,751.239L176.735,751.267L176.649,751.297L176.562,751.328L176.474,751.36L176.386,751.393L176.297,751.427L176.207,751.463L176.12,751.497L175.933,751.574L175.747,751.653L175.557,751.736L175.363,751.822L175.166,751.91L174.966,752.001L174.548,752.194L174.119,752.39L173.894,752.492L173.666,752.594L173.432,752.696L173.193,752.798L172.953,752.898L172.824,752.95L172.698,753L172.57,753.05L172.441,753.099L172.31,753.148L172.178,753.196L172.045,753.243L171.908,753.29L171.771,753.336L171.633,753.381L171.492,753.425L171.35,753.468L171.206,753.51L171.061,753.55L170.962,753.577L170.971,753.773L170.968,753.966L170.955,754.15L170.932,754.327L170.902,754.496L170.865,754.655L170.823,754.806L170.776,754.947L170.725,755.082L170.672,755.207L170.606,755.348L170.505,755.539L170.387,755.728L170.268,755.899L170.147,756.054L170.028,756.192L169.911,756.317L169.793,756.434L169.675,756.542L169.559,756.641L169.441,756.735L169.322,756.823L169.202,756.906L169.081,756.985L168.958,757.059L168.83,757.132L168.725,757.187L168.484,757.307L168.269,757.417L168.049,757.528L167.821,757.642L167.59,757.755L167.465,757.815L167.34,757.874L167.213,757.933L167.083,757.991L166.949,758.05L166.812,758.107L166.673,758.165L166.529,758.221L166.382,758.277L166.233,758.331L166.081,758.384L165.924,758.436L165.765,758.485L165.602,758.533L165.436,758.579L165.267,758.623L165.097,758.664L164.922,758.702L164.744,758.739L164.565,758.772L164.381,758.803L164.212,758.829L164.05,758.852L163.907,758.873L163.61,758.92L163.315,758.969L163.019,759.021L162.721,759.075L162.422,759.131L162.12,759.19L161.818,759.251L161.514,759.313L161.207,759.377L160.9,759.443L160.591,759.509L159.965,759.646L159.334,759.785L158.697,759.925L158.373,759.995L158.049,760.064L157.722,760.133L157.394,760.201L157.063,760.268L156.73,760.334L156.395,760.397L156.058,760.46L155.718,760.52L155.376,760.577L155.036,760.632L154.86,760.659L154.686,760.685L154.511,760.71L154.337,760.734L154.161,760.757L153.982,760.78L153.712,760.813L153.44,760.843L153.169,760.871L152.901,760.896L152.633,760.92L152.367,760.942L152.103,760.961L151.841,760.98L151.58,760.997L151.321,761.013L151.063,761.028L150.806,761.042L150.303,761.068L149.803,761.093L149.312,761.117L148.825,761.143L148.587,761.157L148.35,761.171L148.114,761.186L147.88,761.202L147.649,761.219L147.419,761.237L147.191,761.256L146.966,761.277L146.742,761.299L146.521,761.323L146.301,761.348L146.079,761.376L145.499,761.452L144.912,761.532L144.622,761.573L144.331,761.614L144.041,761.657L143.751,761.7L143.463,761.744L143.177,761.79L142.892,761.836L142.75,761.86L142.7,761.915L142.629,761.995L142.554,762.082L142.475,762.176L142.392,762.275L142.307,762.379L142.119,762.609L141.922,762.852L141.816,762.982L141.707,763.115L141.593,763.251L141.475,763.391L141.352,763.533L141.223,763.678L141.09,763.825L140.95,763.974L140.809,764.119L140.729,764.2L140.652,764.275L140.573,764.351L140.493,764.427L140.41,764.503L140.326,764.579L140.24,764.655L140.151,764.731L140.06,764.806L139.968,764.881L139.872,764.956L139.776,765.029L139.677,765.102L139.574,765.176L139.47,765.247L139.364,765.318L139.254,765.387L139.142,765.456L139.028,765.523L138.912,765.588L138.793,765.652L138.671,765.715L138.5,765.799L138.329,765.878L138.16,765.953L137.993,766.024L137.828,766.091L137.664,766.155L137.503,766.216L137.344,766.275L137.187,766.331L137.031,766.385L136.878,766.438L136.725,766.489L136.433,766.586L136.148,766.679L135.873,766.769L135.606,766.858L135.481,766.901L135.358,766.944L135.237,766.986L135.121,767.029L135.008,767.071L134.9,767.113L134.795,767.154L134.695,767.196L134.598,767.237L134.507,767.278L134.421,767.318L134.343,767.357L134.333,767.362L134.326,767.365L134.32,767.369L134.314,767.373L134.306,767.377L134.299,767.382L134.289,767.389L134.279,767.397L134.269,767.404L134.256,767.414L134.243,767.425L134.229,767.437L134.212,767.452L134.194,767.469L134.176,767.486L134.155,767.506L134.134,767.527L134.111,767.551L134.086,767.577L134.064,767.601L134.002,767.67L133.94,767.742L133.871,767.824L133.798,767.912L133.624,768.126L133.433,768.361L133.322,768.495L133.204,768.635L133.077,768.781L132.946,768.926L132.869,769.008L132.794,769.087L132.715,769.167L132.635,769.246L132.551,769.328L132.464,769.409L132.374,769.491L132.281,769.573L132.184,769.655L132.084,769.737L131.981,769.817L131.874,769.898L131.765,769.978L131.651,770.057L131.534,770.134L131.414,770.21L131.291,770.285L131.165,770.357L131.035,770.428L130.918,770.488L126.734,772.58L126.714,772.59L126.708,772.594L126.7,772.598L126.692,772.603L126.684,772.608L126.673,772.614L126.663,772.621L126.652,772.629L126.638,772.639L126.624,772.649L126.608,772.661L126.591,772.675L126.573,772.689L126.552,772.706L126.531,772.724L126.515,772.739L126.46,772.789L126.405,772.84L126.344,772.898L126.278,772.964L126.206,773.037L126.13,773.116L125.952,773.301L125.759,773.502L125.647,773.615L125.53,773.732L125.405,773.854L125.272,773.979L125.131,774.108L124.987,774.234L124.903,774.305L124.822,774.372L124.739,774.439L124.652,774.507L124.565,774.574L124.475,774.64L124.381,774.708L124.286,774.774L124.188,774.84L124.088,774.905L123.985,774.969L123.879,775.033L123.771,775.096L123.661,775.157L123.549,775.217L123.441,775.272L123.231,775.376L123.032,775.473L122.835,775.567L122.64,775.658L122.448,775.747L122.258,775.833L122.071,775.917L121.886,775.999L121.704,776.078L121.522,776.156L121.173,776.305L120.83,776.448L120.496,776.587L120.171,776.722L119.854,776.854L119.54,776.987L119.389,777.051L119.237,777.117L119.087,777.183L118.938,777.249L118.79,777.316L118.642,777.384L118.495,777.453L118.348,777.523L118.202,777.594L118.05,777.669L117.14,778.124L116.689,778.349L116.241,778.571L115.795,778.79L115.354,779.004L115.131,779.112L114.91,779.217L114.689,779.322L114.468,779.425L114.246,779.528L114.025,779.629L113.802,779.73L113.58,779.829L113.358,779.927L113.134,780.024L112.91,780.12L112.685,780.214L112.46,780.307L112.233,780.398L112.006,780.488L111.777,780.577L111.547,780.664L111.316,780.749L111.084,780.832L110.851,780.914L110.615,780.995L110.379,781.073L110.141,781.149L109.901,781.223L109.66,781.296L109.417,781.366L109.173,781.434L108.926,781.5L108.678,781.564L108.428,781.625L108.176,781.684L107.923,781.741L107.667,781.795L107.408,781.847L107.148,781.897L106.886,781.943L106.622,781.987L106.356,782.029L106.087,782.068L105.816,782.104L105.543,782.137L105.267,782.168L104.989,782.196L104.709,782.22L104.426,782.242L104.141,782.262L103.853,782.278L103.562,782.291L103.269,782.302L102.973,782.309L102.674,782.314L102.385,782.315L102.275,782.316L102.183,782.317L101.978,782.321L101.774,782.327L101.564,782.336L101.349,782.346L101.13,782.358L100.67,782.385L100.197,782.413L99.949,782.426L99.697,782.438L99.44,782.449L99.178,782.457L98.915,782.463L98.775,782.464L98.722,782.464L98.626,782.472L98.433,782.486L98.309,782.495L98.177,782.502L98.033,782.509L97.877,782.513L97.715,782.514L97.606,782.512L97.502,782.508L97.386,782.501L97.252,782.488L97.091,782.468L96.894,782.432L96.649,782.372L96.503,782.322L96.237,782.217L96.127,782.167L96.022,782.11L95.773,781.958L95.766,781.954L95.481,781.735L95.378,781.646L95.227,781.489L95.137,781.39L95.047,781.286L94.961,781.178L94.877,781.067L94.796,780.95L94.719,780.83L94.646,780.709L94.576,780.582L94.51,780.452L94.45,780.32L94.423,780.256L94.304,780.228L94.282,780.222L93.991,780.12L93.88,780.074L93.773,780.021L93.54,779.892L93.426,779.821L93.318,779.742L93.091,779.558L93.084,779.552L92.872,779.342L92.865,779.335L92.675,779.105L92.669,779.097L92.497,778.841L92.492,778.832L92.357,778.58L92.353,778.57L92.244,778.31L92.24,778.299L92.16,778.044L92.125,777.912L92.081,777.665L92.057,777.436L92.051,777.231L92.056,777.049L92.061,776.981L92.058,776.587L92.115,776.166L92.23,775.758L92.35,775.487L92.087,775.531L92.033,775.545L91.624,775.654L91.389,775.716L91.167,775.771L91.04,775.801L90.906,775.83L90.784,775.852L90.594,775.879L90.462,775.887L90.203,775.892L89.944,775.874L89.941,775.874L89.636,775.824L89.339,775.743L89.051,775.632L89.049,775.631L88.698,775.446L88.375,775.216L88.085,774.945L88.006,774.861L87.87,774.697L87.748,774.527L87.636,774.35L87.538,774.17L87.455,773.993L87.384,773.813L87.325,773.636L87.277,773.464L87.241,773.296L87.214,773.136L87.195,772.982L87.184,772.835L87.179,772.667L87.184,772.44L87.205,772.208L87.236,771.999L87.275,771.812L87.317,771.644L87.363,771.491L87.409,771.352L87.456,771.225L87.503,771.108L87.549,771.001L87.594,770.903L87.638,770.811L87.684,770.719L87.756,770.581L87.826,770.455L87.912,770.306L87.918,770.295L87.968,770.198L88.053,770.044L88.142,769.893L88.236,769.744L88.334,769.598L88.435,769.456L88.541,769.317L88.65,769.182L88.763,769.05L88.879,768.922L88.998,768.8L89.12,768.681L89.245,768.567L89.372,768.457L89.501,768.352L89.631,768.252L89.763,768.157L89.896,768.067L90.031,767.981L90.164,767.9L90.299,767.823L90.432,767.752L90.567,767.684L90.701,767.62L90.834,767.561L90.966,767.505L91.097,767.453L91.227,767.405L91.355,767.36L91.483,767.318L91.609,767.279L91.733,767.243L91.856,767.209L91.978,767.178L92.098,767.149L92.216,767.122L92.332,767.097L92.448,767.074L92.56,767.053L92.672,767.033L92.781,767.015L92.895,766.997L93.1,766.967L93.304,766.941L93.502,766.917L93.693,766.897L93.877,766.877L94.222,766.843L94.386,766.827L94.541,766.811L94.689,766.794L94.839,766.776L95.236,766.727L95.651,766.677L96.071,766.629L96.287,766.605L96.503,766.583L96.72,766.56L96.94,766.539L97.161,766.518L97.383,766.498L97.607,766.48L97.832,766.462L98.059,766.446L98.287,766.431L98.516,766.418L98.746,766.406L98.978,766.396L99.21,766.388L99.444,766.381L99.679,766.377L99.915,766.374L100.152,766.374L100.389,766.377L100.627,766.382L100.814,766.387L100.895,766.317L100.987,766.241L101.086,766.163L101.196,766.081L101.321,765.993L101.458,765.905L101.608,765.816L101.751,765.74L101.962,765.636L102.147,765.547L102.333,765.46L102.52,765.374L102.708,765.291L102.896,765.209L103.085,765.128L103.275,765.049L103.465,764.972L103.655,764.895L103.845,764.82L104.036,764.746L104.226,764.674L104.416,764.602L104.606,764.532L104.799,764.462L105.175,764.327L105.552,764.195L105.924,764.066L106.292,763.941L106.655,763.82L107.01,763.701L107.706,763.47L107.827,763.43L107.955,763.389L108.084,763.349L108.212,763.311L108.34,763.274L108.468,763.238L108.596,763.203L108.724,763.169L108.852,763.136L108.984,763.104L109.233,763.044L109.487,762.987L109.675,762.946L109.704,762.895L109.787,762.755L109.875,762.618L109.966,762.484L110.06,762.355L110.158,762.228L110.258,762.106L110.361,761.988L110.467,761.874L110.574,761.765L110.683,761.66L110.793,761.56L110.904,761.463L111.017,761.371L111.129,761.284L111.241,761.202L111.353,761.123L111.465,761.049L111.577,760.978L111.687,760.911L111.796,760.848L111.906,760.788L112.012,760.732L112.118,760.679L112.222,760.628L112.323,760.581L112.425,760.536L112.525,760.493L112.621,760.453L112.715,760.415L112.817,760.376L112.989,760.312L113.162,760.251L113.327,760.195L113.485,760.144L113.764,760.056L114.021,759.975L114.13,759.94L114.231,759.906L114.323,759.874L114.403,759.845L114.482,759.814L114.508,759.804L114.536,759.792L114.562,759.78L114.585,759.77L114.606,759.76L114.641,759.743L114.735,759.696L114.849,759.641L115.062,759.54L115.28,759.441L115.497,759.345L115.714,759.253L115.93,759.163L116.144,759.076L116.358,758.991L116.57,758.909L116.781,758.829L116.991,758.75L117.201,758.673L117.61,758.524L118.015,758.377L118.412,758.234L118.804,758.09L118.993,758.02L119.181,757.949L119.366,757.877L119.549,757.806L119.729,757.734L119.906,757.661L120.08,757.588L120.25,757.514L120.417,757.44L120.582,757.365L120.747,757.286L120.791,757.265L120.796,757.261L120.861,757.215L120.942,757.155L121.154,756.998L121.402,756.814L121.541,756.712L121.688,756.605L121.841,756.495L122.001,756.383L122.168,756.267L122.341,756.151L122.514,756.038L122.612,755.976L122.705,755.918L122.801,755.86L122.9,755.801L123,755.744L123.102,755.686L123.207,755.629L123.315,755.573L123.427,755.516L123.543,755.461L123.662,755.406L123.789,755.351L123.919,755.299L124.056,755.247L124.202,755.197L124.356,755.15L124.519,755.105L124.697,755.065L124.889,755.03L125.095,755.002L125.294,754.987L125.435,754.982L125.557,754.982L125.687,754.986L125.824,754.996ZM254.632,739.032L254.474,739.269L254.496,739.241L254.635,739.031L254.663,738.98L254.632,739.032Z" style="fill:rgb(36,36,36);"/>
    </g>
    <g transform="matrix(1,0,0,1,-12.2435,-43.4087)">
        <path d="M0.806,777.695L0.819,777.697L1.145,777.765L1.158,777.769L1.467,777.87L1.479,777.875L1.782,778.013L1.794,778.019L2.079,778.189L2.09,778.196L2.332,778.378L2.342,778.387L2.506,778.537L2.596,778.517L2.773,778.482L2.942,778.451L3.104,778.424L3.261,778.399L3.537,778.359L3.791,778.322L3.901,778.306L4.002,778.291L4.092,778.276L4.17,778.262L4.236,778.249L4.296,778.236L4.308,778.234L4.314,778.232L4.387,778.197L4.547,778.123L4.708,778.054L4.868,777.989L5.029,777.927L5.189,777.869L5.348,777.815L5.507,777.764L5.666,777.716L5.825,777.671L5.982,777.628L6.139,777.589L6.295,777.551L6.451,777.516L6.607,777.483L6.762,777.453L6.916,777.424L7.07,777.397L7.223,777.372L7.375,777.348L7.527,777.326L7.679,777.305L7.829,777.286L7.979,777.268L8.128,777.252L8.277,777.236L8.425,777.222L8.576,777.208L8.863,777.184L9.151,777.163L9.436,777.145L9.716,777.128L9.993,777.114L10.266,777.101L10.79,777.078L11.297,777.056L11.537,777.045L11.77,777.033L11.995,777.02L12.211,777.006L12.416,776.991L12.616,776.973L12.704,776.965L12.794,776.956L12.881,776.946L12.976,776.934L13.104,776.919L13.246,776.903L13.387,776.888L13.527,776.874L13.668,776.861L13.809,776.849L13.948,776.839L14.088,776.829L14.229,776.821L14.368,776.814L14.508,776.807L14.649,776.802L14.788,776.798L14.928,776.796L15.068,776.794L15.207,776.793L15.347,776.794L15.486,776.796L15.626,776.799L15.766,776.803L15.905,776.808L16.045,776.814L16.184,776.821L16.323,776.83L16.463,776.839L16.604,776.85L16.743,776.861L16.883,776.874L17.022,776.888L17.162,776.903L17.303,776.919L17.42,776.933L17.437,776.935L17.445,776.936L17.462,776.937L17.489,776.939L17.522,776.941L17.554,776.942L17.655,776.944L17.763,776.946L17.878,776.945L17.996,776.944L18.115,776.941L18.231,776.938L18.337,776.934L18.526,776.926L18.647,776.92L18.69,776.918L19.095,776.922L19.495,776.98L19.884,777.092L20.254,777.255L20.599,777.466L20.912,777.722L21.149,777.975L21.42,777.97L21.728,777.966L22.029,777.964L22.324,777.963L22.897,777.961L23.172,777.96L23.441,777.957L23.706,777.952L23.831,777.949L23.957,777.945L24.082,777.941L24.204,777.936L24.324,777.93L24.442,777.923L24.558,777.916L24.672,777.908L24.784,777.899L24.894,777.889L25.002,777.878L25.107,777.866L25.209,777.853L25.314,777.839L25.416,777.824L25.522,777.807L25.627,777.79L25.733,777.773L25.84,777.754L25.947,777.734L26.054,777.714L26.161,777.693L26.269,777.671L26.377,777.648L26.486,777.624L26.595,777.6L26.704,777.575L26.809,777.55L27.033,777.496L27.254,777.439L27.476,777.38L27.699,777.318L27.923,777.254L28.149,777.187L28.375,777.118L28.602,777.047L28.831,776.973L29.06,776.898L29.29,776.821L29.522,776.742L29.754,776.661L29.987,776.579L30.22,776.495L30.455,776.41L30.688,776.325L31.164,776.149L31.64,775.971L32.608,775.607L32.717,775.567L32.834,775.526L32.951,775.486L33.068,775.448L33.184,775.413L33.301,775.378L33.415,775.346L33.53,775.314L33.644,775.285L33.758,775.256L33.871,775.229L33.984,775.203L34.096,775.178L34.214,775.154L34.43,775.111L34.649,775.07L34.867,775.033L35.083,774.999L35.296,774.968L35.507,774.939L35.715,774.913L35.921,774.888L36.124,774.865L36.324,774.844L36.523,774.823L36.905,774.785L37.275,774.749L37.632,774.714L37.8,774.697L37.966,774.679L38.126,774.661L38.281,774.642L38.43,774.623L38.572,774.604L38.707,774.584L38.85,774.561L39.03,774.532L39.225,774.501L39.422,774.471L39.62,774.442L39.82,774.415L40.021,774.389L40.223,774.364L40.427,774.341L40.632,774.32L40.84,774.3L41.048,774.283L41.258,774.267L41.47,774.254L41.682,774.243L41.897,774.235L42.113,774.229L42.33,774.226L42.549,774.226L42.769,774.229L42.991,774.235L43.213,774.245L43.437,774.258L43.662,774.274L43.883,774.294L44.002,774.307L44.116,774.319L44.23,774.333L44.344,774.348L44.46,774.364L44.574,774.38L44.689,774.398L44.805,774.417L44.921,774.438L45.036,774.459L45.151,774.481L45.269,774.505L45.385,774.53L45.5,774.556L45.617,774.583L45.712,774.607L45.821,774.633L45.95,774.662L46.118,774.7L46.312,774.745L46.428,774.773L46.546,774.803L46.671,774.837L46.8,774.874L46.936,774.914L47.078,774.96L47.226,775.01L47.38,775.068L47.54,775.132L47.694,775.198L47.789,775.242L47.877,775.284L47.965,775.329L48.054,775.376L48.145,775.427L48.237,775.48L48.332,775.538L48.428,775.6L48.524,775.665L48.623,775.736L48.721,775.811L48.82,775.89L48.92,775.975L49.01,776.057L49.289,776.046L49.529,776.035L49.76,776.023L49.988,776.01L50.091,776.003L50.195,775.995L50.297,775.986L50.397,775.977L50.494,775.967L50.588,775.957L50.679,775.945L50.768,775.934L50.854,775.921L50.94,775.907L51.08,775.883L51.224,775.857L51.369,775.83L51.514,775.802L51.661,775.772L51.808,775.74L51.956,775.708L52.105,775.674L52.255,775.639L52.406,775.602L52.558,775.565L52.71,775.526L52.863,775.486L53.017,775.446L53.172,775.404L53.325,775.362L53.642,775.272L53.96,775.18L54.28,775.084L54.604,774.986L54.93,774.885L55.26,774.781L55.593,774.676L55.929,774.569L56.61,774.351L56.956,774.241L57.304,774.131L57.656,774.021L58.011,773.911L58.369,773.803L58.73,773.695L59.092,773.591L59.278,773.538L59.463,773.487L59.649,773.436L59.835,773.386L60.022,773.337L60.21,773.289L60.399,773.241L60.589,773.194L60.78,773.149L60.971,773.104L61.164,773.061L61.358,773.018L61.552,772.977L61.747,772.938L61.877,772.912L62.011,772.887L62.264,772.841L62.519,772.799L62.772,772.759L63.024,772.723L63.273,772.689L63.52,772.658L63.765,772.628L64.008,772.601L64.249,772.575L64.487,772.551L64.725,772.528L65.187,772.486L65.643,772.445L66.089,772.406L66.528,772.365L66.741,772.344L66.952,772.323L67.161,772.301L67.368,772.277L67.571,772.253L67.772,772.227L67.97,772.201L68.165,772.172L68.357,772.142L68.547,772.11L68.739,772.076L68.826,772.059L68.912,772.042L68.943,772.036L68.973,772.029L69.002,772.022L69.036,772.014L69.074,772.004L69.106,771.995L69.199,771.968L69.295,771.939L69.398,771.905L69.509,771.868L69.626,771.827L69.751,771.782L69.879,771.734L70.162,771.627L70.461,771.513L70.775,771.394L70.943,771.332L71.115,771.27L71.29,771.207L71.471,771.145L71.657,771.084L71.848,771.024L72.044,770.965L72.239,770.911L72.349,770.883L72.455,770.856L72.562,770.831L72.67,770.807L72.781,770.783L72.893,770.761L73.007,770.74L73.125,770.721L73.243,770.703L73.364,770.687L73.486,770.673L73.612,770.661L73.74,770.652L73.87,770.644L74.003,770.64L74.102,770.639L74.331,770.645L74.56,770.668L74.562,770.669L74.934,770.746L75.294,770.87L75.636,771.039L75.953,771.249L76.241,771.498L76.495,771.782L76.712,772.095L76.712,772.096L76.832,772.329L76.99,772.274L77.265,772.176L77.536,772.077L77.808,771.975L77.939,771.925L78.071,771.874L78.202,771.822L78.332,771.77L78.462,771.717L78.59,771.664L78.718,771.61L78.844,771.556L78.97,771.501L79.094,771.446L79.217,771.391L79.34,771.334L79.46,771.278L79.581,771.221L79.7,771.163L79.807,771.11L79.866,771.079L79.917,771.052L79.97,771.021L80.026,770.989L80.083,770.953L80.143,770.914L80.207,770.873L80.273,770.828L80.341,770.78L80.413,770.728L80.488,770.674L80.563,770.618L80.733,770.491L80.912,770.354L81.105,770.207L81.309,770.054L81.423,769.97L81.538,769.886L81.657,769.801L81.78,769.715L81.908,769.627L82.042,769.539L82.181,769.45L82.325,769.361L82.474,769.273L82.629,769.185L82.789,769.098L83.006,768.986L83.229,768.888L83.469,768.806L83.679,768.748L83.862,768.708L84.027,768.68L84.175,768.661L84.312,768.647L84.445,768.637L84.569,768.631L84.687,768.628L84.803,768.627L84.918,768.628L85.029,768.631L85.14,768.635L85.251,768.641L85.36,768.648L85.469,768.656L85.579,768.665L85.689,768.676L85.799,768.687L85.91,768.7L86.026,768.714L86.243,768.744L86.468,768.778L86.694,768.817L86.922,768.859L87.144,768.904L87.265,768.93L87.38,768.956L87.495,768.983L87.609,769.01L87.725,769.039L87.839,769.069L87.955,769.101L88.07,769.133L88.185,769.167L88.301,769.202L88.416,769.239L88.475,769.258L88.606,769.239L88.75,769.224L88.9,769.213L89.058,769.207L89.222,769.207L89.391,769.214L89.564,769.229L89.742,769.252L89.926,769.285L90.113,769.328L90.302,769.382L90.493,769.447L90.681,769.523L90.866,769.609L91.033,769.698L91.185,769.79L91.32,769.879L91.441,769.967L91.549,770.052L91.65,770.136L91.742,770.218L91.826,770.296L91.905,770.374L91.978,770.448L92.046,770.521L92.119,770.602L92.231,770.731L92.341,770.865L92.443,770.996L92.538,771.124L92.628,771.248L92.714,771.37L92.796,771.489L92.878,771.61L93.024,771.831L93.162,772.046L93.29,772.244L93.408,772.426L93.459,772.504L93.508,772.576L93.551,772.64L93.589,772.694L93.62,772.737L93.625,772.745L93.646,772.763L93.688,772.798L93.736,772.838L93.867,772.944L94.184,773.2L94.364,773.348L94.465,773.432L94.565,773.517L94.669,773.607L94.775,773.7L94.883,773.798L94.993,773.902L95.106,774.011L95.221,774.126L95.337,774.249L95.455,774.38L95.567,774.511L95.636,774.595L95.696,774.673L95.757,774.753L95.819,774.838L95.881,774.928L95.942,775.021L96.003,775.119L96.064,775.222L96.125,775.332L96.185,775.446L96.243,775.568L96.3,775.697L96.354,775.834L96.41,775.991L96.469,776.188L96.521,776.406L96.559,776.631L96.584,776.858L96.594,777.086L96.589,777.313L96.571,777.535L96.54,777.752L96.497,777.961L96.444,778.161L96.383,778.351L96.314,778.53L96.239,778.699L96.161,778.857L96.079,779.003L95.995,779.141L95.91,779.269L95.826,779.387L95.74,779.498L95.655,779.603L95.574,779.695L95.605,779.688L95.782,779.656L95.953,779.628L96.119,779.604L96.278,779.583L96.433,779.566L96.582,779.55L96.726,779.537L96.868,779.525L97.123,779.505L97.362,779.488L97.583,779.471L97.678,779.463L97.769,779.455L97.853,779.446L97.93,779.438L97.998,779.429L98.058,779.421L98.11,779.412L98.152,779.405L98.194,779.396L98.199,779.395L98.215,779.391L98.493,779.32L98.793,779.242L99.108,779.157L99.434,779.067L99.769,778.971L99.935,778.922L100.104,778.872L100.274,778.821L100.443,778.769L100.612,778.716L100.78,778.663L100.947,778.609L101.112,778.554L101.274,778.5L101.435,778.445L101.592,778.39L101.746,778.335L101.896,778.28L102.041,778.225L102.182,778.171L102.316,778.117L102.445,778.065L102.567,778.013L102.681,777.964L102.788,777.916L102.885,777.87L102.989,777.819L103.228,777.701L103.483,777.576L103.74,777.453L103.997,777.332L104.255,777.212L104.513,777.094L104.772,776.977L105.032,776.862L105.292,776.748L105.553,776.636L105.814,776.524L106.076,776.414L106.338,776.305L106.6,776.197L106.862,776.09L107.125,775.984L107.388,775.879L107.653,775.774L108.177,775.568L108.704,775.365L109.23,775.164L109.757,774.965L110.283,774.768L111.329,774.377L112.372,773.988L112.889,773.794L113.403,773.599L113.915,773.403L114.425,773.205L114.677,773.107L114.929,773.007L115.18,772.907L115.43,772.807L115.679,772.706L115.926,772.604L116.173,772.502L116.418,772.4L116.663,772.296L116.906,772.192L117.147,772.087L117.388,771.982L117.627,771.875L117.864,771.768L118.1,771.66L118.334,771.551L118.567,771.441L118.798,771.33L119.028,771.218L119.247,771.109L119.251,771.107L119.253,771.106L119.257,771.103L119.264,771.099L119.273,771.093L119.285,771.086L119.298,771.076L119.314,771.065L119.331,771.053L119.35,771.039L119.371,771.023L119.394,771.005L119.411,770.991L119.47,770.942L119.526,770.893L119.587,770.838L119.651,770.778L119.719,770.713L119.789,770.644L119.863,770.57L119.938,770.492L120.015,770.411L120.094,770.326L120.173,770.241L120.342,770.054L120.513,769.862L120.69,769.664L120.872,769.46L121.055,769.257L121.155,769.149L121.255,769.043L121.358,768.935L121.491,768.801L121.629,768.672L121.786,768.54L121.93,768.431L122.063,768.339L122.189,768.257L122.307,768.185L122.418,768.121L122.524,768.064L122.626,768.01L122.725,767.961L122.819,767.915L122.916,767.869L123.082,767.794L123.245,767.722L123.396,767.658L123.535,767.599L123.658,767.547L123.763,767.502L123.846,767.466L123.908,767.437L123.91,767.436L123.931,767.423L123.956,767.407L123.984,767.388L124.015,767.365L124.05,767.34L124.087,767.311L124.127,767.279L124.17,767.243L124.216,767.205L124.266,767.162L124.314,767.119L124.434,767.012L124.56,766.895L124.849,766.628L125.011,766.48L125.103,766.398L125.195,766.317L125.292,766.234L125.394,766.148L125.499,766.061L125.61,765.974L125.726,765.884L125.847,765.794L125.973,765.705L126.099,765.618L126.22,765.539L126.336,765.465L126.451,765.393L126.566,765.324L126.682,765.256L126.796,765.191L126.91,765.127L127.024,765.065L127.138,765.005L127.25,764.946L127.362,764.89L127.474,764.835L127.585,764.781L127.7,764.726L127.913,764.628L128.129,764.532L128.34,764.441L128.548,764.354L128.753,764.27L128.953,764.19L129.151,764.111L129.527,763.965L129.891,763.823L130.063,763.755L130.23,763.688L130.393,763.622L130.549,763.556L130.7,763.492L130.845,763.427L130.989,763.361L131.051,763.332L131.117,763.3L131.181,763.268L131.243,763.237L131.304,763.206L131.364,763.174L131.421,763.143L131.477,763.112L131.531,763.081L131.585,763.049L131.636,763.018L131.685,762.988L131.734,762.957L131.793,762.918L132.071,762.734L132.36,762.545L132.649,762.358L132.939,762.174L133.228,761.992L133.518,761.813L133.808,761.637L134.098,761.462L134.389,761.29L134.681,761.12L134.973,760.952L135.266,760.787L135.56,760.624L135.855,760.462L136.151,760.303L136.448,760.146L136.747,759.99L137.047,759.837L137.348,759.685L137.651,759.535L137.956,759.387L138.262,759.241L138.57,759.096L138.881,758.953L139.193,758.811L139.507,758.67L139.824,758.532L140.143,758.394L140.464,758.258L140.788,758.123L141.115,757.989L141.436,757.859L141.826,757.732L142.228,757.66L142.638,757.643L143.045,757.681L143.444,757.775L143.826,757.922L144.184,758.12L144.512,758.365L144.804,758.653L145.054,758.977L145.257,759.332L145.411,759.712L145.511,760.109L145.556,760.516L145.545,760.925L145.478,761.329L145.357,761.721L145.184,762.092L144.962,762.436L144.696,762.746L144.389,763.018L144.049,763.245L143.68,763.424L143.375,763.547L143.081,763.667L142.79,763.789L142.502,763.911L142.217,764.034L141.935,764.157L141.656,764.282L141.379,764.408L141.104,764.535L140.832,764.663L140.562,764.792L140.293,764.922L140.027,765.054L139.762,765.187L139.498,765.322L139.236,765.459L138.975,765.597L138.715,765.736L138.457,765.878L138.198,766.022L137.941,766.167L137.684,766.314L137.427,766.464L137.171,766.616L136.914,766.77L136.658,766.926L136.401,767.085L136.144,767.246L135.886,767.41L135.628,767.577L135.369,767.746L135.097,767.926L134.995,767.993L134.88,768.067L134.765,768.138L134.651,768.207L134.536,768.274L134.423,768.339L134.309,768.402L134.195,768.464L134.084,768.523L133.972,768.581L133.86,768.637L133.749,768.692L133.639,768.745L133.524,768.799L133.313,768.896L133.1,768.991L132.889,769.081L132.682,769.168L132.479,769.251L132.279,769.33L132.083,769.408L131.708,769.554L131.345,769.696L131.173,769.764L131.006,769.831L130.843,769.897L130.686,769.963L130.534,770.029L130.389,770.093L130.243,770.16L130.181,770.19L130.114,770.222L130.049,770.255L129.985,770.287L129.923,770.319L129.863,770.351L129.804,770.383L129.746,770.415L129.69,770.447L129.637,770.479L129.583,770.511L129.531,770.543L129.481,770.575L129.438,770.604L129.407,770.625L129.377,770.646L129.345,770.67L129.31,770.697L129.27,770.729L129.228,770.763L129.183,770.801L129.134,770.843L129.082,770.889L129.031,770.935L128.908,771.047L128.629,771.305L128.471,771.45L128.303,771.602L128.206,771.687L128.109,771.77L128.007,771.856L127.901,771.943L127.791,772.032L127.675,772.121L127.554,772.211L127.428,772.301L127.296,772.391L127.158,772.482L127.015,772.571L126.866,772.659L126.759,772.718L126.657,772.771L126.561,772.819L126.463,772.866L126.305,772.939L126.149,773.008L126.003,773.07L125.867,773.127L125.741,773.181L125.627,773.229L125.528,773.273L125.505,773.283L125.482,773.308L125.332,773.473L125.17,773.654L124.993,773.853L124.803,774.067L124.602,774.288L124.493,774.407L124.382,774.525L124.268,774.645L124.151,774.766L124.03,774.889L123.905,775.012L123.775,775.136L123.642,775.261L123.503,775.387L123.358,775.512L123.216,775.631L123.132,775.698L123.053,775.76L122.973,775.822L122.89,775.884L122.805,775.945L122.719,776.006L122.63,776.067L122.539,776.127L122.446,776.186L122.35,776.245L122.251,776.303L122.151,776.36L122.047,776.416L121.949,776.466L121.676,776.602L121.411,776.731L121.147,776.858L120.881,776.983L120.615,777.107L120.349,777.229L120.083,777.349L119.816,777.468L119.549,777.586L119.281,777.702L119.014,777.816L118.746,777.929L118.479,778.042L118.211,778.152L117.943,778.262L117.675,778.371L117.407,778.478L117.14,778.585L116.873,778.69L116.603,778.796L116.071,779.002L115.539,779.206L115.007,779.407L114.478,779.606L113.428,779.998L112.386,780.387L111.871,780.58L111.36,780.773L110.853,780.967L110.351,781.161L109.852,781.356L109.607,781.453L109.361,781.551L109.118,781.65L108.875,781.749L108.634,781.848L108.395,781.948L108.157,782.048L107.92,782.149L107.685,782.25L107.452,782.352L107.222,782.455L106.992,782.558L106.765,782.662L106.539,782.767L106.315,782.872L106.094,782.979L105.874,783.086L105.64,783.202L105.477,783.281L105.296,783.366L105.114,783.448L104.93,783.529L104.744,783.607L104.557,783.683L104.367,783.759L104.177,783.832L103.984,783.904L103.791,783.975L103.596,784.045L103.4,784.114L103.204,784.181L103.006,784.248L102.809,784.313L102.611,784.376L102.414,784.439L102.217,784.501L102.021,784.561L101.825,784.62L101.632,784.677L101.437,784.734L101.06,784.842L100.691,784.944L100.334,785.041L99.991,785.13L99.658,785.215L99.57,785.236L99.47,785.259L99.299,785.294L99.126,785.326L98.958,785.353L98.795,785.376L98.637,785.396L98.485,785.413L98.339,785.428L98.198,785.441L98.059,785.452L97.808,785.471L97.573,785.488L97.353,785.505L97.258,785.513L97.166,785.522L97.081,785.531L97.002,785.54L96.93,785.549L96.865,785.558L96.81,785.567L96.762,785.576L96.711,785.587L96.702,785.589L96.689,785.592L96.677,785.595L96.667,785.598L96.66,785.6L96.553,785.653L96.413,785.72L96.272,785.786L96.132,785.849L95.992,785.912L95.852,785.973L95.712,786.032L95.571,786.09L95.431,786.147L95.292,786.202L95.152,786.257L95.011,786.31L94.872,786.363L94.729,786.415L94.455,786.514L94.178,786.61L93.902,786.704L93.627,786.795L93.355,786.884L93.083,786.971L92.814,787.056L92.285,787.223L91.762,787.388L91.507,787.469L91.256,787.551L91.008,787.632L90.764,787.714L90.525,787.796L90.29,787.879L90.057,787.963L89.948,788.004L89.837,788.046L89.727,788.089L89.619,788.132L89.512,788.174L89.407,788.218L89.303,788.261L89.201,788.305L89.1,788.349L89.002,788.393L88.905,788.437L88.81,788.482L88.717,788.527L88.621,788.574L88.149,788.811L87.89,788.942L87.616,789.078L87.33,789.218L87.037,789.359L86.882,789.433L86.727,789.505L86.57,789.577L86.41,789.649L86.248,789.721L86.084,789.792L85.918,789.862L85.75,789.931L85.579,789.999L85.406,790.067L85.231,790.132L85.054,790.196L84.874,790.259L84.692,790.319L84.507,790.377L84.32,790.432L84.13,790.485L83.936,790.534L83.748,790.579L83.641,790.602L83.547,790.621L83.201,790.69L82.863,790.756L82.525,790.822L82.185,790.887L81.51,791.014L80.834,791.139L80.157,791.261L79.482,791.382L78.806,791.5L78.131,791.617L77.457,791.732L76.783,791.847L75.439,792.073L74.098,792.299L73.429,792.412L72.761,792.526L72.095,792.641L71.43,792.756L70.767,792.873L70.105,792.992L69.445,793.112L68.786,793.234L68.128,793.359L67.802,793.422L67.475,793.486L67.148,793.551L66.822,793.616L66.497,793.682L66.171,793.749L65.847,793.817L65.523,793.885L65.2,793.955L64.877,794.025L64.555,794.097L64.233,794.169L63.912,794.242L63.592,794.317L63.272,794.392L62.953,794.469L62.634,794.546L62.283,794.633L62.127,794.669L61.943,794.703L61.766,794.728L61.596,794.747L61.434,794.759L61.281,794.766L61.135,794.769L60.996,794.769L60.867,794.765L60.745,794.76L60.629,794.753L60.515,794.745L60.331,794.728L60.166,794.712L60.028,794.697L59.912,794.686L59.872,794.683L59.837,794.68L59.821,794.679L59.672,794.708L59.408,794.758L59.143,794.806L58.88,794.851L58.616,794.895L58.353,794.938L58.09,794.978L57.828,795.017L57.566,795.055L57.304,795.092L57.044,795.127L56.784,795.161L56.524,795.194L56.263,795.226L55.751,795.288L55.24,795.347L54.732,795.404L53.733,795.514L53.241,795.568L52.755,795.623L52.275,795.68L51.784,795.739L51.688,795.75L51.575,795.761L51.464,795.77L51.356,795.777L51.252,795.782L51.147,795.785L51.045,795.787L50.938,795.788L50.754,795.786L50.567,795.78L50.387,795.772L50.211,795.761L50.041,795.749L49.877,795.736L49.717,795.722L49.562,795.707L49.272,795.679L48.994,795.653L48.868,795.643L48.746,795.633L48.631,795.625L48.523,795.618L48.423,795.614L48.331,795.611L48.241,795.61L48.21,795.61L48.174,795.61L48.143,795.611L48.113,795.612L48.085,795.614L48.061,795.615L48.041,795.617L48.024,795.618L48.01,795.62L48.002,795.621L47.865,795.666L47.683,795.724L47.501,795.781L47.319,795.836L47.137,795.889L46.955,795.941L46.773,795.992L46.592,796.041L46.41,796.09L46.229,796.137L46.048,796.183L45.864,796.229L45.506,796.317L45.147,796.401L44.789,796.484L44.433,796.564L44.08,796.642L43.729,796.719L43.035,796.87L42.694,796.945L42.357,797.021L42.024,797.096L41.695,797.172L41.369,797.25L41.212,797.289L41.054,797.328L40.898,797.368L40.743,797.408L40.589,797.449L40.437,797.49L40.287,797.531L40.139,797.573L39.992,797.616L39.847,797.659L39.705,797.703L39.564,797.747L39.426,797.792L39.289,797.838L39.155,797.884L39.023,797.93L38.893,797.978L38.765,798.026L38.64,798.074L38.517,798.123L38.397,798.173L38.279,798.224L38.164,798.275L38.051,798.326L37.941,798.378L37.792,798.452L37.688,798.501L37.552,798.557L37.423,798.606L37.296,798.648L37.179,798.683L37.07,798.712L36.965,798.736L36.847,798.761L36.675,798.791L36.502,798.814L36.34,798.83L36.188,798.84L36.044,798.846L35.908,798.849L35.777,798.85L35.653,798.848L35.532,798.845L35.415,798.84L35.304,798.834L35.19,798.827L34.992,798.813L34.802,798.797L34.484,798.768L34.36,798.758L34.263,798.75L34.239,798.749L34.227,798.748L34.069,798.748L33.887,798.746L33.537,798.741L33.192,798.733L32.853,798.723L32.52,798.711L32.193,798.698L31.562,798.671L30.944,798.643L30.643,798.631L30.345,798.62L30.05,798.611L29.756,798.605L29.46,798.6L29.317,798.599L29.175,798.599L29.113,798.599L29.052,798.6L28.985,798.602L28.921,798.604L28.765,798.611L28.603,798.621L28.429,798.633L28.244,798.648L28.049,798.664L27.847,798.682L27.413,798.722L26.96,798.763L26.72,798.784L26.476,798.803L26.227,798.821L25.973,798.837L25.72,798.85L25.584,798.856L25.452,798.86L25.319,798.864L25.184,798.867L25.049,798.868L24.913,798.869L24.775,798.868L24.635,798.866L24.495,798.862L24.355,798.856L24.212,798.849L24.068,798.84L23.923,798.829L23.776,798.816L23.629,798.8L23.48,798.782L23.33,798.761L23.178,798.737L23.025,798.71L22.871,798.68L22.716,798.646L22.558,798.609L22.398,798.567L22.238,798.521L22.077,798.47L21.915,798.414L21.752,798.353L21.587,798.286L21.421,798.212L21.356,798.181L21.344,798.178L21.33,798.175L21.268,798.161L21.202,798.149L21.126,798.136L21.04,798.123L20.947,798.11L20.847,798.097L20.74,798.085L20.629,798.074L20.514,798.064L20.396,798.055L20.274,798.046L20.151,798.039L20.027,798.032L19.903,798.026L19.778,798.021L19.658,798.017L19.409,798.01L19.175,798.005L18.954,798.003L18.749,798.001L18.607,798.001L18.587,798.003L18.507,798.009L18.388,798.019L18.238,798.032L18.061,798.045L17.872,798.056L17.756,798.061L17.641,798.064L17.521,798.066L17.394,798.066L17.262,798.063L17.121,798.057L16.971,798.047L16.814,798.032L16.645,798.01L16.464,797.979L16.288,797.942L16.199,797.92L16.041,797.94L15.867,797.957L15.696,797.971L15.528,797.981L15.361,797.988L15.196,797.991L15.034,797.991L14.873,797.989L14.715,797.984L14.559,797.977L14.405,797.968L14.253,797.957L14.103,797.944L13.954,797.93L13.808,797.914L13.664,797.896L13.522,797.878L13.381,797.858L13.244,797.838L13.106,797.817L12.972,797.795L12.835,797.772L12.58,797.726L12.329,797.679L12.085,797.631L11.849,797.585L11.412,797.497L11.318,797.479L11.208,797.458L10.922,797.408L10.754,797.377L10.571,797.342L10.377,797.303L10.18,797.26L10.068,797.233L9.957,797.206L9.843,797.177L9.728,797.145L9.607,797.11L9.483,797.071L9.353,797.027L9.217,796.977L9.075,796.921L8.939,796.863L8.907,796.866L8.681,796.892L8.547,796.907L8.407,796.92L8.256,796.933L8.094,796.943L7.93,796.949L7.827,796.951L7.728,796.951L7.625,796.949L7.518,796.945L7.403,796.938L7.28,796.928L7.152,796.913L7.016,796.893L6.869,796.866L6.711,796.831L6.541,796.785L6.361,796.726L6.171,796.653L5.967,796.559L5.752,796.443L5.529,796.3L5.463,796.249L5.459,796.269L5.418,796.403L5.319,796.68L5.315,796.69L5.179,796.975L5.174,796.984L4.992,797.278L4.986,797.286L4.762,797.567L4.755,797.574L4.499,797.827L4.491,797.834L4.194,798.063L4.185,798.069L3.89,798.244L3.88,798.249L3.57,798.388L3.559,798.393L3.293,798.48L3.281,798.484L3.017,798.545L2.882,798.57L2.644,798.593L2.428,798.6L2.22,798.593L2.038,798.576L1.883,798.553L1.722,798.522L1.528,798.475L1.348,798.42L1.196,798.367L1.061,798.315L0.94,798.264L0.83,798.216L0.726,798.167L0.627,798.12L0.532,798.072L0.434,798.022L0.264,797.933L0.096,797.841L-0.064,797.752L-0.215,797.666L-0.476,797.516L-0.529,797.485L-0.672,797.465L-1.029,797.418L-1.238,797.388L-1.362,797.369L-1.486,797.348L-1.616,797.325L-1.756,797.297L-1.904,797.264L-2.062,797.225L-2.23,797.177L-2.394,797.125L-2.506,797.085L-2.608,797.046L-2.711,797.004L-2.821,796.955L-2.937,796.899L-3.057,796.836L-3.182,796.764L-3.314,796.682L-3.449,796.589L-3.587,796.484L-3.731,796.363L-3.812,796.286L-4.091,795.984L-4.099,795.975L-4.262,795.752L-4.403,795.514L-4.409,795.503L-4.505,795.307L-4.587,795.105L-4.592,795.092L-4.689,794.768L-4.723,794.624L-4.76,794.374L-4.776,794.167L-4.78,793.994L-4.777,793.847L-4.769,793.718L-4.757,793.587L-4.734,793.411L-4.705,793.243L-4.674,793.092L-4.643,792.954L-4.61,792.823L-4.577,792.698L-4.543,792.576L-4.508,792.458L-4.472,792.337L-4.403,792.118L-4.332,791.902L-4.263,791.696L-4.141,791.343L-4.092,791.201L-4.058,791.099L-4.049,791.07L-3.968,790.752L-3.868,790.369L-3.766,789.987L-3.664,789.607L-3.459,788.85L-3.359,788.476L-3.26,788.103L-3.164,787.73L-3.118,787.548L-3.072,787.365L-3.027,787.183L-2.983,787.001L-2.94,786.821L-2.899,786.641L-2.859,786.463L-2.82,786.285L-2.783,786.109L-2.747,785.934L-2.713,785.76L-2.68,785.587L-2.649,785.416L-2.619,785.24L-2.581,785.008L-2.543,784.779L-2.509,784.56L-2.477,784.346L-2.464,784.25L-2.451,784.152L-2.439,784.056L-2.428,783.963L-2.418,783.871L-2.41,783.783L-2.402,783.696L-2.396,783.611L-2.391,783.529L-2.386,783.448L-2.384,783.369L-2.382,783.292L-2.381,783.216L-2.382,783.142L-2.383,783.069L-2.386,782.998L-2.39,782.927L-2.395,782.857L-2.402,782.788L-2.41,782.719L-2.419,782.65L-2.429,782.581L-2.44,782.513L-2.469,782.364L-2.496,782.19L-2.513,781.991L-2.519,781.838L-2.52,781.714L-2.518,781.611L-2.516,781.571L-2.533,781.527L-2.624,781.128L-2.661,780.72L-2.641,780.311L-2.566,779.909L-2.436,779.52L-2.255,779.153L-2.026,778.814L-1.753,778.509L-1.44,778.244L-1.095,778.024L-0.722,777.854L-0.331,777.735L0.074,777.671L0.483,777.663L0.497,777.664L0.806,777.695ZM7.962,796.248L7.967,796.252L7.944,796.231L7.962,796.248Z" style="fill:rgb(36,36,36);"/>
    </g>
    <g transform="matrix(1,0,0,1,-5.2435,-34.4087)">
        <path d="M431.404,704.521C431.404,701.26 428.756,698.612 425.495,698.612L387.418,698.612C384.157,698.612 381.51,701.26 381.51,704.521L381.51,716.338C381.51,719.599 384.157,722.246 387.418,722.246L425.495,722.246C428.756,722.246 431.404,719.599 431.404,716.338L431.404,704.521Z" style="fill:rgb(150,150,150);stroke:black;stroke-width:6px;"/>
    </g>
    <g transform="matrix(1,0,0,1,-10.2435,-45.4087)">
        <path d="M431.404,704.521C431.404,701.26 428.756,698.612 425.495,698.612L387.418,698.612C384.157,698.612 381.51,701.26 381.51,704.521L381.51,716.338C381.51,719.599 384.157,722.246 387.418,722.246L425.495,722.246C428.756,722.246 431.404,719.599 431.404,716.338L431.404,704.521Z" style="fill:rgb(150,150,150);stroke:black;stroke-width:6px;"/>
    </g>
    <g transform="matrix(1,0,0,0.826173,-10.2435,128.137)">
        <path d="M431.404,704.521C431.404,701.26 429.216,698.612 426.522,698.612L386.391,698.612C383.697,698.612 381.51,701.26 381.51,704.521L381.51,716.338C381.51,719.599 383.697,722.246 386.391,722.246L426.522,722.246C429.216,722.246 431.404,719.599 431.404,716.338L431.404,704.521Z" style="fill:rgb(150,150,150);stroke:black;stroke-width:6.54px;"/>
    </g>
    <g transform="matrix(1,0,0,1.328,-12.2435,-283.018)">
        <path d="M319.983,718.792C319.983,712.753 313.472,707.85 305.453,707.85L270.687,707.85C262.668,707.85 256.157,712.753 256.157,718.792L256.157,740.675C256.157,746.714 262.668,751.617 270.687,751.617L305.453,751.617C313.472,751.617 319.983,746.714 319.983,740.675L319.983,718.792Z" style="fill:rgb(100,100,100);stroke:black;stroke-width:5.1px;"/>
    </g>
    <g transform="matrix(1.06934,0,0,1.00392,-49.2279,-50.506)">
        <path d="M774.122,139.337C774.122,121.408 760.456,106.852 743.624,106.852L499.645,106.852C482.813,106.852 469.148,121.408 469.148,139.337L469.148,642.02C469.148,659.948 482.813,674.504 499.645,674.504L743.624,674.504C760.456,674.504 774.122,659.948 774.122,642.02L774.122,139.337Z" style="fill:rgb(254,254,254);stroke:black;stroke-width:5.79px;"/>
    </g>
    <g transform="matrix(1.06934,0,0,1.00392,-79.2279,-50.506)">
        <path d="M774.122,139.337C774.122,121.408 760.456,106.852 743.624,106.852L499.645,106.852C482.813,106.852 469.148,121.408 469.148,139.337L469.148,642.02C469.148,659.948 482.813,674.504 499.645,674.504L743.624,674.504C760.456,674.504 774.122,659.948 774.122,642.02L774.122,139.337Z" style="fill:rgb(254,254,254);stroke:black;stroke-width:5.79px;"/>
    </g>
    <g transform="matrix(0.703751,-0.710447,0.710447,0.703751,-100.991,490.235)">
        <circle cx="592.003" cy="381.63" r="16.631" style="fill:rgb(100,100,100);"/>
        <clipPath id="_clip1">
            <circle cx="592.003" cy="381.63" r="16.631"/>
        </clipPath>
        <g clip-path="url(#_clip1)">
            <g transform="matrix(1,0,0,1,-7,0)">
                <path d="M582.371,381.63L615.634,381.63" style="fill:none;stroke:black;stroke-width:6px;"/>
            </g>
        </g>
        <circle cx="592.003" cy="381.63" r="16.631" style="fill:none;stroke:black;stroke-width:6px;"/>
    </g>
    <g transform="matrix(0.391971,0,0,0.240941,344.124,120.776)">
        <path d="M774.122,156.466C774.122,129.084 760.456,106.852 743.624,106.852L499.645,106.852C482.813,106.852 469.148,129.084 469.148,156.466L469.148,624.89C469.148,652.273 482.813,674.504 499.645,674.504L743.624,674.504C760.456,674.504 774.122,652.273 774.122,624.89L774.122,156.466Z" style="fill:rgb(254,254,254);"/>
        <clipPath id="_clip2">
            <path d="M774.122,156.466C774.122,129.084 760.456,106.852 743.624,106.852L499.645,106.852C482.813,106.852 469.148,129.084 469.148,156.466L469.148,624.89C469.148,652.273 482.813,674.504 499.645,674.504L743.624,674.504C760.456,674.504 774.122,652.273 774.122,624.89L774.122,156.466Z"/>
        </clipPath>
        <g clip-path="url(#_clip2)">
            <g transform="matrix(2.82673,0,0,-6.8164,-1077.93,2511.67)">
                <path d="M582.646,287.272C582.646,295.587 590.902,302.328 601.086,302.328C611.271,302.328 619.527,295.587 619.527,287.272L601.086,287.272L582.646,287.272Z" style="fill:rgb(36,36,36);stroke:black;stroke-width:4.28px;"/>
            </g>
            <g transform="matrix(0.170122,0,0,0.344,439.582,136.7)">
                <path d="M774.122,131.388C774.122,117.846 760.456,106.852 743.624,106.852L499.645,106.852C482.813,106.852 469.148,117.846 469.148,131.388L469.148,649.968C469.148,663.51 482.813,674.504 499.645,674.504L743.624,674.504C760.456,674.504 774.122,663.51 774.122,649.968L774.122,131.388Z" style="fill:rgb(36,36,36);stroke:black;stroke-width:79.77px;"/>
            </g>
            <g transform="matrix(0.170122,0,0,0.344,592.654,136.7)">
                <path d="M774.122,131.388C774.122,117.846 760.456,106.852 743.624,106.852L499.645,106.852C482.813,106.852 469.148,117.846 469.148,131.388L469.148,649.968C469.148,663.51 482.813,674.504 499.645,674.504L743.624,674.504C760.456,674.504 774.122,663.51 774.122,649.968L774.122,131.388Z" style="fill:rgb(36,36,36);stroke:black;stroke-width:79.77px;"/>
            </g>
        </g>
        <path d="M774.122,156.466C774.122,129.084 760.456,106.852 743.624,106.852L499.645,106.852C482.813,106.852 469.148,129.084 469.148,156.466L469.148,624.89C469.148,652.273 482.813,674.504 499.645,674.504L743.624,674.504C760.456,674.504 774.122,652.273 774.122,624.89L774.122,156.466Z" style="fill:none;stroke:black;stroke-width:18.44px;"/>
    </g>
    <g transform="matrix(0.391971,0,0,0.240941,344.124,374.776)">
        <path d="M774.122,156.466C774.122,129.084 760.456,106.852 743.624,106.852L499.645,106.852C482.813,106.852 469.148,129.084 469.148,156.466L469.148,624.89C469.148,652.273 482.813,674.504 499.645,674.504L743.624,674.504C760.456,674.504 774.122,652.273 774.122,624.89L774.122,156.466Z" style="fill:rgb(254,254,254);"/>
        <clipPath id="_clip3">
            <path d="M774.122,156.466C774.122,129.084 760.456,106.852 743.624,106.852L499.645,106.852C482.813,106.852 469.148,129.084 469.148,156.466L469.148,624.89C469.148,652.273 482.813,674.504 499.645,674.504L743.624,674.504C760.456,674.504 774.122,652.273 774.122,624.89L774.122,156.466Z"/>
        </clipPath>
        <g clip-path="url(#_clip3)">
            <g transform="matrix(2.82673,0,0,-6.8164,-1077.93,2511.67)">
                <path d="M582.646,287.272C582.646,295.587 590.902,302.328 601.086,302.328C611.271,302.328 619.527,295.587 619.527,287.272L601.086,287.272L582.646,287.272Z" style="fill:rgb(36,36,36);stroke:black;stroke-width:4.28px;"/>
            </g>
            <g transform="matrix(0.170122,0,0,0.344,439.582,136.7)">
                <path d="M774.122,131.388C774.122,117.846 760.456,106.852 743.624,106.852L499.645,106.852C482.813,106.852 469.148,117.846 469.148,131.388L469.148,649.968C469.148,663.51 482.813,674.504 499.645,674.504L743.624,674.504C760.456,674.504 774.122,663.51 774.122,649.968L774.122,131.388Z" style="fill:rgb(36,36,36);stroke:black;stroke-width:79.77px;"/>
            </g>
            <g transform="matrix(0.170122,0,0,0.344,592.654,136.7)">
                <path d="M774.122,131.388C774.122,117.846 760.456,106.852 743.624,106.852L499.645,106.852C482.813,106.852 469.148,117.846 469.148,131.388L469.148,649.968C469.148,663.51 482.813,674.504 499.645,674.504L743.624,674.504C760.456,674.504 774.122,663.51 774.122,649.968L774.122,131.388Z" style="fill:rgb(36,36,36);stroke:black;stroke-width:79.77px;"/>
            </g>
        </g>
        <path d="M774.122,156.466C774.122,129.084 760.456,106.852 743.624,106.852L499.645,106.852C482.813,106.852 469.148,129.084 469.148,156.466L469.148,624.89C469.148,652.273 482.813,674.504 499.645,674.504L743.624,674.504C760.456,674.504 774.122,652.273 774.122,624.89L774.122,156.466Z" style="fill:none;stroke:black;stroke-width:18.44px;"/>
    </g>
    <g transform="matrix(1,0,0,1,-12.2435,-43.4087)">
        <path d="M394.295,701.923C394.295,686.826 382.038,674.569 366.941,674.569L312.233,674.569C297.136,674.569 284.879,686.826 284.879,701.923L284.879,757.088C284.879,772.185 297.136,784.442 312.233,784.442L366.941,784.442C382.038,784.442 394.295,772.185 394.295,757.088L394.295,701.923Z" style="fill:rgb(100,100,100);stroke:black;stroke-width:6px;"/>
    </g>
    <g transform="matrix(1,0,0,1,-12.2435,-43.4087)">
        <path d="M254.759,718.513C254.759,718.513 168.627,723.415 132.213,748.391C95.799,773.368 33.475,775.235 33.475,775.235L-0.604,775.935" style="fill:none;stroke:black;stroke-width:6px;"/>
    </g>
    <g transform="matrix(1,0,0,1,-12.2435,-20.4087)">
        <path d="M254.759,718.513C254.759,718.513 168.627,723.415 132.213,748.391C95.799,773.368 33.475,775.235 33.475,775.235L-0.604,775.935" style="fill:none;stroke:black;stroke-width:6px;"/>
    </g>
    <g transform="matrix(1,0,0,1,-28.9151,92.8816)">
        <path d="M163.222,62.805C163.222,75.872 158.688,86.805 149.622,95.605C140.555,104.405 129.355,108.805 116.022,108.805C105.355,108.805 95.688,105.472 87.022,98.805C78.355,92.139 72.622,83.139 69.822,71.805L86.222,65.205C88.222,73.205 91.855,79.539 97.122,84.205C102.388,88.872 108.555,91.205 115.622,91.205C124.155,91.205 131.122,88.572 136.522,83.305C141.922,78.039 144.622,71.272 144.622,63.005C144.622,54.605 141.922,47.739 136.522,42.405C131.122,37.072 124.222,34.405 115.822,34.405C106.088,34.405 98.422,38.339 92.822,46.205L74.222,38.205L83.022,-31.195L154.822,-31.195L154.822,-13.595L98.422,-13.595L93.422,25.605L94.222,25.805C101.022,20.339 109.288,17.605 119.022,17.605C131.288,17.605 141.722,21.939 150.322,30.605C158.922,39.272 163.222,50.005 163.222,62.805Z" style="fill-rule:nonzero;"/>
        <path d="M181.622,37.205C181.622,16.405 186.755,-0.728 197.022,-14.195C207.288,-27.661 220.488,-34.395 236.622,-34.395C252.755,-34.395 265.955,-27.595 276.222,-13.995C286.488,-0.528 291.622,16.539 291.622,37.205C291.622,57.739 286.488,74.872 276.222,88.605C265.955,102.072 252.755,108.805 236.622,108.805C220.488,108.805 207.288,102.072 197.022,88.605C186.755,74.872 181.622,57.739 181.622,37.205ZM272.822,37.205C272.822,21.472 269.488,8.539 262.822,-1.595C256.288,-11.728 247.555,-16.795 236.622,-16.795C225.688,-16.795 216.955,-11.728 210.422,-1.595C203.755,8.539 200.422,21.472 200.422,37.205C200.422,52.939 203.755,65.939 210.422,76.205C216.955,86.205 225.688,91.205 236.622,91.205C247.555,91.205 256.288,86.139 262.822,76.005C269.488,65.739 272.822,52.805 272.822,37.205Z" style="fill-rule:nonzero;"/>
        <path d="M398.622,66.805C398.622,78.805 394.155,88.805 385.222,96.805C376.422,104.805 365.488,108.805 352.422,108.805C342.155,108.805 332.888,105.739 324.622,99.605C316.222,93.205 310.555,84.872 307.622,74.605L324.422,67.605C326.555,75.205 330.055,81.039 334.922,85.105C339.788,89.172 345.622,91.205 352.422,91.205C359.888,91.205 366.355,88.872 371.822,84.205C377.155,79.405 379.822,73.605 379.822,66.805C379.822,60.005 377.022,54.272 371.422,49.605C365.955,44.939 359.355,42.605 351.622,42.605L339.822,42.605L339.822,25.405L350.222,25.405C357.555,25.405 363.555,23.372 368.222,19.305C372.888,15.239 375.222,9.939 375.222,3.405C375.222,-2.595 373.022,-7.461 368.622,-11.195C364.222,-14.928 358.422,-16.795 351.222,-16.795C339.622,-16.795 331.688,-10.861 327.422,1.005L310.422,-6.195C313.488,-14.595 318.622,-21.395 325.822,-26.595C333.022,-31.795 341.488,-34.395 351.222,-34.395C363.355,-34.395 373.555,-30.795 381.822,-23.595C389.955,-16.661 394.022,-7.661 394.022,3.405C394.022,16.605 387.888,26.405 375.622,32.805L375.622,33.605C382.822,36.672 388.455,41.139 392.522,47.005C396.588,52.872 398.622,59.472 398.622,66.805Z" style="fill-rule:nonzero;"/>
    </g>
    <g transform="matrix(1,0,0,1,-16.8634,185.843)">
        <path d="M113.222,86.505C113.222,92.772 110.922,97.805 106.322,101.605C101.655,105.339 95.988,107.205 89.322,107.205C83.388,107.205 78.155,105.472 73.622,102.005C69.088,98.539 65.955,93.805 64.222,87.805L73.022,84.205C73.622,86.339 74.455,88.272 75.522,90.005C76.588,91.739 77.838,93.222 79.272,94.455C80.705,95.689 82.288,96.655 84.022,97.355C85.755,98.055 87.588,98.405 89.522,98.405C93.722,98.405 97.155,97.322 99.822,95.155C102.488,92.989 103.822,90.105 103.822,86.505C103.822,83.505 102.722,80.939 100.522,78.805C98.455,76.739 94.588,74.739 88.922,72.805C83.188,70.739 79.622,69.339 78.222,68.605C70.622,64.739 66.822,59.039 66.822,51.505C66.822,46.239 68.922,41.739 73.122,38.005C77.388,34.272 82.622,32.405 88.822,32.405C94.288,32.405 99.022,33.805 103.022,36.605C107.022,39.339 109.688,42.772 111.022,46.905L102.422,50.505C101.622,47.839 100.038,45.622 97.672,43.855C95.305,42.089 92.422,41.205 89.022,41.205C85.422,41.205 82.388,42.205 79.922,44.205C77.455,46.072 76.222,48.505 76.222,51.505C76.222,53.972 77.188,56.105 79.122,57.905C81.255,59.705 85.888,61.839 93.022,64.305C100.288,66.772 105.472,69.789 108.572,73.355C111.672,76.922 113.222,81.305 113.222,86.505Z" style="fill-rule:nonzero;"/>
        <path d="M144.722,107.205C137.522,107.205 131.588,104.739 126.922,99.805C122.255,94.872 119.922,88.639 119.922,81.105C119.922,73.639 122.188,67.422 126.722,62.455C131.255,57.489 137.055,55.005 144.122,55.005C151.388,55.005 157.172,57.355 161.472,62.055C165.772,66.755 167.922,73.339 167.922,81.805L167.822,82.805L129.322,82.805C129.455,87.605 131.055,91.472 134.122,94.405C137.188,97.339 140.855,98.805 145.122,98.805C150.988,98.805 155.588,95.872 158.922,90.005L167.122,94.005C164.922,98.139 161.872,101.372 157.972,103.705C154.072,106.039 149.655,107.205 144.722,107.205ZM130.022,75.205L158.122,75.205C157.855,71.805 156.472,68.989 153.972,66.755C151.472,64.522 148.122,63.405 143.922,63.405C140.455,63.405 137.472,64.472 134.972,66.605C132.472,68.739 130.822,71.605 130.022,75.205Z" style="fill-rule:nonzero;"/>
        <path d="M185.522,105.605L176.322,105.605L176.322,56.605L185.122,56.605L185.122,64.605L185.522,64.605C186.455,62.005 188.372,59.789 191.272,57.955C194.172,56.122 197.022,55.205 199.822,55.205C202.488,55.205 204.755,55.605 206.622,56.405L203.822,65.305C202.688,64.839 200.888,64.605 198.422,64.605C194.955,64.605 191.938,66.005 189.372,68.805C186.805,71.605 185.522,74.872 185.522,78.605L185.522,105.605Z" style="fill-rule:nonzero;"/>
        <path d="M237.422,105.605L228.222,105.605L208.422,56.605L218.422,56.605L232.822,94.605L233.022,94.605L247.622,56.605L257.422,56.605L237.422,105.605Z" style="fill-rule:nonzero;"/>
        <path d="M275.322,39.705C275.322,41.505 274.688,43.039 273.422,44.305C272.155,45.572 270.622,46.205 268.822,46.205C267.022,46.205 265.488,45.572 264.222,44.305C262.955,43.039 262.322,41.505 262.322,39.705C262.322,37.905 262.955,36.372 264.222,35.105C265.488,33.839 267.022,33.205 268.822,33.205C270.622,33.205 272.155,33.839 273.422,35.105C274.688,36.372 275.322,37.905 275.322,39.705ZM273.422,56.605L273.422,105.605L264.222,105.605L264.222,56.605L273.422,56.605Z" style="fill-rule:nonzero;"/>
        <path d="M307.322,107.205C300.055,107.205 294.022,104.739 289.222,99.805C284.488,94.739 282.122,88.505 282.122,81.105C282.122,73.572 284.488,67.339 289.222,62.405C294.022,57.472 300.055,55.005 307.322,55.005C312.322,55.005 316.688,56.255 320.422,58.755C324.155,61.255 326.955,64.705 328.822,69.105L320.422,72.605C317.822,66.472 313.255,63.405 306.722,63.405C302.522,63.405 298.888,65.105 295.822,68.505C292.822,71.905 291.322,76.105 291.322,81.105C291.322,86.105 292.822,90.305 295.822,93.705C298.888,97.105 302.522,98.805 306.722,98.805C313.455,98.805 318.188,95.739 320.922,89.605L329.122,93.105C327.322,97.505 324.505,100.955 320.672,103.455C316.838,105.955 312.388,107.205 307.322,107.205Z" style="fill-rule:nonzero;"/>
        <path d="M358.622,107.205C351.422,107.205 345.488,104.739 340.822,99.805C336.155,94.872 333.822,88.639 333.822,81.105C333.822,73.639 336.088,67.422 340.622,62.455C345.155,57.489 350.955,55.005 358.022,55.005C365.288,55.005 371.072,57.355 375.372,62.055C379.672,66.755 381.822,73.339 381.822,81.805L381.722,82.805L343.222,82.805C343.355,87.605 344.955,91.472 348.022,94.405C351.088,97.339 354.755,98.805 359.022,98.805C364.888,98.805 369.488,95.872 372.822,90.005L381.022,94.005C378.822,98.139 375.772,101.372 371.872,103.705C367.972,106.039 363.555,107.205 358.622,107.205ZM343.922,75.205L372.022,75.205C371.755,71.805 370.372,68.989 367.872,66.755C365.372,64.522 362.022,63.405 357.822,63.405C354.355,63.405 351.372,64.472 348.872,66.605C346.372,68.739 344.722,71.605 343.922,75.205Z" style="fill-rule:nonzero;"/>
        <path d="M86.582,170.629C81.504,170.629 77.408,168.965 74.294,165.637C71.179,162.352 69.622,158 69.622,152.581L69.622,123.781L75.51,123.781L75.51,152.837C75.51,156.592 76.491,159.557 78.454,161.733C80.416,163.909 83.126,164.997 86.582,164.997C90.038,164.997 92.747,163.909 94.71,161.733C96.672,159.557 97.654,156.592 97.654,152.837L97.654,123.781L103.542,123.781L103.542,152.581C103.542,158.128 102.006,162.523 98.934,165.765C95.862,169.008 91.744,170.629 86.582,170.629Z" style="fill-rule:nonzero;"/>
        <path d="M110.71,138.245L116.342,138.245L116.342,142.597L116.598,142.597C117.494,141.061 118.87,139.781 120.726,138.757C122.582,137.733 124.512,137.221 126.518,137.221C130.358,137.221 133.312,138.32 135.382,140.517C137.451,142.715 138.486,145.84 138.486,149.893L138.486,169.605L132.598,169.605L132.598,150.277C132.47,145.157 129.888,142.597 124.854,142.597C122.507,142.597 120.544,143.547 118.966,145.445C117.387,147.344 116.598,149.616 116.598,152.261L116.598,169.605L110.71,169.605L110.71,138.245Z" style="fill-rule:nonzero;"/>
        <path d="M149.366,160.005C149.366,161.541 150.016,162.821 151.318,163.845C152.619,164.869 154.144,165.381 155.894,165.381C158.368,165.381 160.576,164.464 162.518,162.629C164.459,160.795 165.43,158.64 165.43,156.165C163.595,154.715 161.035,153.989 157.75,153.989C155.36,153.989 153.366,154.565 151.766,155.717C150.166,156.869 149.366,158.299 149.366,160.005ZM156.982,137.221C161.334,137.221 164.768,138.384 167.286,140.709C169.803,143.035 171.062,146.224 171.062,150.277L171.062,169.605L165.43,169.605L165.43,165.253L165.174,165.253C162.742,168.837 159.499,170.629 155.446,170.629C151.99,170.629 149.099,169.605 146.774,167.557C144.448,165.509 143.286,162.949 143.286,159.877C143.286,156.635 144.512,154.053 146.966,152.133C149.419,150.213 152.694,149.253 156.79,149.253C160.288,149.253 163.168,149.893 165.43,151.173L165.43,149.829C165.43,147.781 164.619,146.043 162.998,144.613C161.376,143.184 159.478,142.469 157.302,142.469C154.016,142.469 151.414,143.856 149.494,146.629L144.31,143.365C147.168,139.269 151.392,137.221 156.982,137.221Z" style="fill-rule:nonzero;"/>
        <path d="M192.31,169.605L186.422,169.605L173.75,138.245L180.15,138.245L189.366,162.565L189.494,162.565L198.838,138.245L205.11,138.245L192.31,169.605Z" style="fill-rule:nonzero;"/>
        <path d="M212.598,160.005C212.598,161.541 213.248,162.821 214.55,163.845C215.851,164.869 217.376,165.381 219.126,165.381C221.6,165.381 223.808,164.464 225.75,162.629C227.691,160.795 228.662,158.64 228.662,156.165C226.827,154.715 224.267,153.989 220.982,153.989C218.592,153.989 216.598,154.565 214.998,155.717C213.398,156.869 212.598,158.299 212.598,160.005ZM220.214,137.221C224.566,137.221 228,138.384 230.518,140.709C233.035,143.035 234.294,146.224 234.294,150.277L234.294,169.605L228.662,169.605L228.662,165.253L228.406,165.253C225.974,168.837 222.731,170.629 218.678,170.629C215.222,170.629 212.331,169.605 210.006,167.557C207.68,165.509 206.518,162.949 206.518,159.877C206.518,156.635 207.744,154.053 210.198,152.133C212.651,150.213 215.926,149.253 220.022,149.253C223.52,149.253 226.4,149.893 228.662,151.173L228.662,149.829C228.662,147.781 227.851,146.043 226.23,144.613C224.608,143.184 222.71,142.469 220.534,142.469C217.248,142.469 214.646,143.856 212.726,146.629L207.542,143.365C210.4,139.269 214.624,137.221 220.214,137.221Z" style="fill-rule:nonzero;"/>
        <path d="M248.566,127.429C248.566,128.581 248.16,129.563 247.35,130.373C246.539,131.184 245.558,131.589 244.406,131.589C243.254,131.589 242.272,131.184 241.462,130.373C240.651,129.563 240.246,128.581 240.246,127.429C240.246,126.277 240.651,125.296 241.462,124.485C242.272,123.675 243.254,123.269 244.406,123.269C245.558,123.269 246.539,123.675 247.35,124.485C248.16,125.296 248.566,126.277 248.566,127.429ZM247.35,138.245L247.35,169.605L241.462,169.605L241.462,138.245L247.35,138.245Z" style="fill-rule:nonzero;"/>
        <rect x="255.03" y="123.781" width="5.888" height="45.824" style="fill-rule:nonzero;"/>
        <path d="M272.054,160.005C272.054,161.541 272.704,162.821 274.006,163.845C275.307,164.869 276.832,165.381 278.582,165.381C281.056,165.381 283.264,164.464 285.206,162.629C287.147,160.795 288.118,158.64 288.118,156.165C286.283,154.715 283.723,153.989 280.438,153.989C278.048,153.989 276.054,154.565 274.454,155.717C272.854,156.869 272.054,158.299 272.054,160.005ZM279.67,137.221C284.022,137.221 287.456,138.384 289.974,140.709C292.491,143.035 293.75,146.224 293.75,150.277L293.75,169.605L288.118,169.605L288.118,165.253L287.862,165.253C285.43,168.837 282.187,170.629 278.134,170.629C274.678,170.629 271.787,169.605 269.462,167.557C267.136,165.509 265.974,162.949 265.974,159.877C265.974,156.635 267.2,154.053 269.654,152.133C272.107,150.213 275.382,149.253 279.478,149.253C282.976,149.253 285.856,149.893 288.118,151.173L288.118,149.829C288.118,147.781 287.307,146.043 285.686,144.613C284.064,143.184 282.166,142.469 279.99,142.469C276.704,142.469 274.102,143.856 272.182,146.629L266.998,143.365C269.856,139.269 274.08,137.221 279.67,137.221Z" style="fill-rule:nonzero;"/>
        <path d="M316.982,170.629C314.678,170.629 312.576,170.139 310.678,169.157C308.779,168.176 307.318,166.875 306.294,165.253L306.038,165.253L306.038,169.605L300.406,169.605L300.406,123.781L306.294,123.781L306.294,138.245L306.038,142.597L306.294,142.597C307.318,140.976 308.779,139.675 310.678,138.693C312.576,137.712 314.678,137.221 316.982,137.221C321.12,137.221 324.619,138.843 327.478,142.085C330.422,145.371 331.894,149.317 331.894,153.925C331.894,158.576 330.422,162.523 327.478,165.765C324.619,169.008 321.12,170.629 316.982,170.629ZM316.022,165.253C318.838,165.253 321.206,164.187 323.126,162.053C325.046,159.963 326.006,157.253 326.006,153.925C326.006,150.64 325.046,147.931 323.126,145.797C321.206,143.664 318.838,142.597 316.022,142.597C313.163,142.597 310.774,143.664 308.854,145.797C306.976,147.931 306.038,150.64 306.038,153.925C306.038,157.253 306.976,159.984 308.854,162.117C310.774,164.208 313.163,165.253 316.022,165.253Z" style="fill-rule:nonzero;"/>
        <rect x="336.95" y="123.781" width="5.888" height="45.824" style="fill-rule:nonzero;"/>
        <path d="M363.766,170.629C359.158,170.629 355.36,169.051 352.374,165.893C349.387,162.736 347.894,158.747 347.894,153.925C347.894,149.147 349.344,145.168 352.246,141.989C355.147,138.811 358.859,137.221 363.382,137.221C368.032,137.221 371.734,138.725 374.486,141.733C377.238,144.741 378.614,148.955 378.614,154.373L378.55,155.013L353.91,155.013C353.995,158.085 355.019,160.56 356.982,162.437C358.944,164.315 361.291,165.253 364.022,165.253C367.776,165.253 370.72,163.376 372.854,159.621L378.102,162.181C376.694,164.827 374.742,166.896 372.246,168.389C369.75,169.883 366.923,170.629 363.766,170.629ZM354.358,150.149L372.342,150.149C372.171,147.973 371.286,146.171 369.686,144.741C368.086,143.312 365.942,142.597 363.254,142.597C361.035,142.597 359.126,143.28 357.526,144.645C355.926,146.011 354.87,147.845 354.358,150.149Z" style="fill-rule:nonzero;"/>
    </g>
</svg>
